<svg xmlns="http://www.w3.org/2000/svg" xmlns:ooo="http://xml.openoffice.org/svg/export" xmlns:xlink="http://www.w3.org/1999/xlink" xmlns:presentation="http://sun.com/xmlns/staroffice/presentation" xmlns:smil="http://www.w3.org/2001/SMIL20/" xmlns:anim="urn:oasis:names:tc:opendocument:xmlns:animation:1.0" version="1.2" viewBox="0 0 2540 3175" preserveAspectRatio="xMidYMid" fill-rule="evenodd" stroke-width="28.222" stroke-linejoin="round" xml:space="preserve" x="0px" y="0px"><defs class="ClipPathGroup"><clipPath id="a" clipPathUnits="userSpaceOnUse"><rect x="0" y="0" width="2540" height="2540"/></clipPath></defs><g class="SlideGroup"><g><g><g class="Slide" clip-path="url(#a)"><g class="Page"><g class="com.sun.star.drawing.ClosedBezierShape"><g><rect class="BoundingBox" stroke="none" fill="none" x="213" y="62" width="2115" height="2417"/><path fill="rgb(0,0,0)" stroke="none" d="M 213,685 C 213,678 215,672 218,666 222,660 226,656 232,652 L 1245,67 C 1251,64 1257,62 1264,62 1271,62 1277,64 1283,67 L 2303,651 C 2309,655 2313,659 2317,665 2320,671 2322,677 2322,684 L 2327,1855 C 2327,1862 2325,1868 2322,1874 2318,1880 2314,1884 2308,1888 L 1295,2473 C 1289,2476 1283,2478 1276,2478 1269,2478 1263,2476 1257,2473 L 238,1888 C 232,1884 227,1880 224,1874 220,1868 219,1862 219,1855 L 213,685 Z M 2246,706 L 1264,144 289,707 295,1833 731,2083 854,1984 1105,1984 1326,1758 1685,1607 1832,1312 2081,1090 2248,1057 2246,706 Z"/></g></g><g class="com.sun.star.drawing.PolyPolygonShape"><g><rect class="BoundingBox" stroke="none" fill="none" x="848" y="411" width="812" height="1562"/><path fill="rgb(0,0,0)" stroke="none" d="M 1103,411 L 1119,412 1134,414 1148,418 1162,423 1175,429 1188,436 1199,445 1210,455 1219,465 1228,477 1235,489 1242,503 1246,517 1250,531 1252,546 1253,562 1252,578 1250,593 1246,607 1242,621 1235,635 1228,647 1219,659 1210,669 1199,679 1188,688 1175,695 1162,701 1148,706 1148,706 1162,708 1172,710 1182,713 1191,717 1200,722 1209,728 1217,735 1225,743 1232,751 1238,760 1243,768 1246,772 1249,778 1304,894 1402,863 1373,746 1372,744 1372,741 1372,739 1372,736 1372,734 1373,732 1373,729 1374,727 1374,726 1375,725 1375,723 1375,722 1376,721 1376,720 1378,718 1379,716 1381,714 1382,712 1384,710 1386,708 1388,707 1390,705 1392,704 1394,703 1396,702 1399,701 1401,700 1404,699 1406,699 1409,699 1411,699 1414,699 1416,700 1419,700 1421,701 1422,701 1423,702 1424,702 1426,702 1428,703 1430,705 1432,706 1434,708 1436,709 1437,711 1439,713 1440,715 1442,717 1443,719 1444,721 1445,723 1446,726 1447,728 1482,868 1484,870 1490,874 1494,879 1499,884 1502,889 1505,895 1507,901 1509,907 1510,913 1510,920 1509,926 1508,933 1506,939 1504,945 1502,950 1658,1578 1658,1581 1659,1583 1659,1586 1659,1588 1659,1591 1658,1593 1658,1596 1657,1598 1657,1599 1657,1600 1656,1601 1656,1603 1655,1605 1654,1607 1652,1609 1651,1611 1649,1613 1647,1614 1645,1616 1643,1617 1641,1619 1639,1620 1637,1621 1635,1622 1633,1623 1630,1624 1628,1625 1625,1625 1623,1625 1620,1626 1618,1625 1615,1625 1613,1625 1610,1624 1608,1623 1606,1622 1603,1621 1601,1620 1599,1618 1597,1617 1596,1615 1594,1613 1592,1611 1591,1609 1589,1607 1588,1605 1587,1603 1586,1601 1585,1599 1584,1596 1435,995 1289,1042 1283,1043 1276,1044 1270,1044 1263,1044 1257,1043 1250,1041 1244,1039 1238,1036 1232,1033 1231,1032 1205,1241 1379,1265 1387,1267 1394,1269 1402,1273 1409,1277 1416,1282 1419,1284 1419,1284 1426,1290 1432,1296 1437,1302 1442,1309 1447,1316 1451,1323 1454,1331 1456,1339 1457,1347 1457,1355 1454,1638 1454,1646 1452,1654 1450,1662 1447,1669 1443,1677 1438,1684 1433,1690 1427,1696 1421,1702 1415,1707 1407,1711 1400,1715 1392,1718 1385,1720 1377,1722 1369,1722 1361,1721 1353,1720 1345,1718 1337,1714 1330,1711 1323,1706 1316,1701 1310,1695 1304,1689 1299,1682 1294,1675 1291,1668 1287,1660 1285,1652 1284,1644 1283,1636 1286,1426 1110,1401 1106,1402 1098,1403 1116,1606 1116,1614 1116,1622 1114,1630 1114,1630 1114,1631 1112,1639 1035,1910 1033,1918 1029,1925 1025,1932 1019,1939 1014,1945 1007,1950 1000,1955 993,1960 986,1964 978,1967 970,1969 961,1971 953,1972 945,1972 937,1971 929,1969 921,1967 914,1963 907,1959 901,1954 895,1948 889,1941 884,1934 880,1927 876,1920 873,1912 870,1903 868,1895 867,1887 867,1879 868,1871 870,1863 944,1601 922,1352 919,1349 913,1340 908,1331 903,1321 900,1312 897,1301 895,1291 895,1281 895,1271 915,1111 855,1001 853,996 851,989 849,983 849,976 849,970 849,963 850,956 852,949 854,943 857,937 860,931 864,925 867,921 956,775 960,770 962,767 964,761 969,752 975,744 982,736 990,728 998,721 1007,715 1016,710 1025,705 1035,701 1041,700 1031,695 1018,688 1007,679 996,669 987,659 978,647 971,635 964,621 960,607 956,593 954,578 953,562 954,546 956,531 960,517 964,503 971,489 978,477 987,465 996,455 1007,445 1018,436 1031,429 1044,423 1058,418 1072,414 1087,412 1103,411 Z"/></g></g></g></g></g></g></g><text x="0" y="2555" fill="#000000" font-size="5px" font-weight="bold" font-family="'Helvetica Neue', Helvetica, Arial-Unicode, Arial, Sans-serif">Created by Erik Arndt</text><text x="0" y="2560" fill="#000000" font-size="5px" font-weight="bold" font-family="'Helvetica Neue', Helvetica, Arial-Unicode, Arial, Sans-serif">from the Noun Project</text></svg>