<svg xmlns="http://www.w3.org/2000/svg" xmlns:xlink="http://www.w3.org/1999/xlink" viewBox="0 0 32 40" version="1.1" x="0px" y="0px"><title>Person</title><desc>Created with Sketch.</desc><g stroke="none" stroke-width="1" fill="none" fill-rule="evenodd"><path d="M15,15 C11.6862915,15 9,17.6862915 9,21 L9,26 C9,26.5522847 9.44771525,27 10,27 L22,27 C22.5522847,27 23,26.5522847 23,26 L23,21 C23,17.6862915 20.3137085,15 17,15 L15,15 Z M15,13 L17,13 C21.418278,13 25,16.581722 25,21 L25,26 C25,27.6568542 23.6568542,29 22,29 L10,29 C8.34314575,29 7,27.6568542 7,26 L7,21 C7,16.581722 10.581722,13 15,13 Z M16,15 C12.6862915,15 10,12.3137085 10,9 C10,5.6862915 12.6862915,3 16,3 C19.3137085,3 22,5.6862915 22,9 C22,12.3137085 19.3137085,15 16,15 Z M16,13 C18.209139,13 20,11.209139 20,9 C20,6.790861 18.209139,5 16,5 C13.790861,5 12,6.790861 12,9 C12,11.209139 13.790861,13 16,13 Z" fill="#000000" fill-rule="nonzero"/></g><text x="0" y="47" fill="#000000" font-size="5px" font-weight="bold" font-family="'Helvetica Neue', Helvetica, Arial-Unicode, Arial, Sans-serif">Created by Vladyslav Sobipan</text><text x="0" y="52" fill="#000000" font-size="5px" font-weight="bold" font-family="'Helvetica Neue', Helvetica, Arial-Unicode, Arial, Sans-serif">from the Noun Project</text></svg>