<svg width="0" height="0" class="hidden">
  <symbol xmlns="http://www.w3.org/2000/svg" viewBox="0 0 100 125" id="duration">
    <switch>
      <g>
        <path d="M5273.1 2400.1v-2c0-2.8-5-4-9.7-4s-9.7 1.3-9.7 4v2c0 1.8.7 3.6 2 4.9l5 4.9c.3.3.4.6.4 1v6.4c0 .4.2.7.6.8l2.9.9c.5.1 1-.2 1-.8v-7.2c0-.4.2-.7.4-1l5.1-5c1.3-1.3 2-3.1 2-4.9zm-9.7-.1c-4.8 0-7.4-1.3-7.5-1.8.1-.5 2.7-1.8 7.5-1.8s7.3 1.3 7.5 1.8c-.2.5-2.7 1.8-7.5 1.8z"></path>
        <path d="M5268.4 2410.3c-.6 0-1 .4-1 1s.4 1 1 1h4.3c.6 0 1-.4 1-1s-.4-1-1-1h-4.3zm4.3 3.4h-4.3c-.6 0-1 .4-1 1s.4 1 1 1h4.3c.6 0 1-.4 1-1s-.4-1-1-1zm0 3.3h-4.3c-.6 0-1 .4-1 1s.4 1 1 1h4.3c.6 0 1-.4 1-1 0-.5-.4-1-1-1zM85.4 30.8c.9.9 2.3.9 3.2 0l2.5-2.5c.9-.9.9-2.3 0-3.2l-8.3-8.3c-.9-.9-2.3-.9-3.2 0l-2.5 2.5c-.9.9-.9 2.3 0 3.2l1.6 1.6-3.3 3.3c-5.4-4.5-12.1-7.6-19.3-8.7V14h3.2c1.2 0 2.2-1 2.2-2.2v-7c0-1.2-1-2.2-2.2-2.2H40.6c-1.2 0-2.2 1-2.2 2.2v7c0 1.2 1 2.2 2.2 2.2h3.2v4.6c-7.2 1.1-13.8 4.2-19.2 8.6l-3.3-3.3 1.6-1.6c.9-.9.9-2.3 0-3.2l-2.5-2.5c-.9-.9-2.3-.9-3.2 0L8.9 25c-.9.9-.9 2.3 0 3.2l2.5 2.5c.9.9 2.3.9 3.2 0l1.6-1.6 3.3 3.3c-5.8 6.9-9.2 15.8-9.2 25.4 0 21.9 17.8 39.7 39.7 39.7 21.9 0 39.7-17.8 39.7-39.7 0-9.6-3.4-18.4-9.1-25.3l3.3-3.3 1.5 1.6zM50 89.1c-17.2 0-31.3-14-31.3-31.3s14-31.3 31.3-31.3c17.2 0 31.3 14 31.3 31.3S67.2 89.1 50 89.1z"></path>
        <path d="M63.9 53.6h-9.7V38c0-2.3-1.9-4.2-4.2-4.2-2.3 0-4.2 1.9-4.2 4.2v19.8c0 2.3 1.9 4.2 4.2 4.2h14c2.3 0 4.2-1.9 4.2-4.2-.1-2.3-1.9-4.2-4.3-4.2z"></path>
      </g>
    </switch><text y="115" font-size="5" font-weight="bold" font-family="&#x27;Helvetica Neue&#x27;, Helvetica, Arial-Unicode, Arial, Sans-serif">Created by Adrien Coquet</text><text y="120" font-size="5" font-weight="bold" font-family="&#x27;Helvetica Neue&#x27;, Helvetica, Arial-Unicode, Arial, Sans-serif">from the Noun Project</text>
  </symbol>
  <symbol xmlns="http://www.w3.org/2000/svg" viewBox="0 0 32 40" id="person">
    <title>Person</title>
    <path d="M15 15a6 6 0 00-6 6v5a1 1 0 001 1h12a1 1 0 001-1v-5a6 6 0 00-6-6h-2zm0-2h2a8 8 0 018 8v5a3 3 0 01-3 3H10a3 3 0 01-3-3v-5a8 8 0 018-8zm1 2a6 6 0 110-12 6 6 0 010 12zm0-2a4 4 0 100-8 4 4 0 000 8z"></path><text y="47" font-size="5" font-weight="bold" font-family="&#x27;Helvetica Neue&#x27;, Helvetica, Arial-Unicode, Arial, Sans-serif">Created by Vladyslav Sobipan</text><text y="52" font-size="5" font-weight="bold" font-family="&#x27;Helvetica Neue&#x27;, Helvetica, Arial-Unicode, Arial, Sans-serif">from the Noun Project</text>
  </symbol>
  <symbol xmlns="http://www.w3.org/2000/svg" viewBox="0 0 100 125" id="price">
    <switch>
      <g>
        <path d="M81 73.8c-.9-.8-2.3-.8-3.1.1-4.7 4.7-10.7 7.2-16.7 7.2-8.8 0-17.2-5.4-22-14.3H62c1.3 0 2.3-1 2.3-2.3v-7.8c0-1.3-1-2.3-2.3-2.3H35.2c-.2-1.5-.2-3-.2-4.4 0-1.4.1-2.9.3-4.5H62c1.3 0 2.3-1 2.3-2.3v-7.8c0-1.3-1-2.3-2.3-2.3H39.2c4.8-8.8 13.1-14.3 22-14.3 6.1 0 12 2.6 16.7 7.3.9.9 2.3.9 3.1.1l8.7-8c.5-.4.7-1 .8-1.7 0-.6-.2-1.2-.6-1.7-7.9-8-18-12.4-28.6-12.4-17.5 0-33.4 12.3-39.7 30.6H12c-1.3 0-2.3 1-2.3 2.3v7.8c0 1.3 1 2.3 2.3 2.3h7c-.1 1.6-.2 3.1-.2 4.5s.1 2.9.2 4.4h-7c-1.3 0-2.3 1-2.3 2.3v7.8c0 1.3 1 2.3 2.3 2.3h9.6C27.9 85 43.8 97.3 61.3 97.3c10.6 0 20.8-4.4 28.6-12.4.4-.4.7-1 .7-1.7 0-.6-.3-1.2-.8-1.7L81 73.8z"></path>
      </g>
    </switch><text y="115" font-size="5" font-weight="bold" font-family="&#x27;Helvetica Neue&#x27;, Helvetica, Arial-Unicode, Arial, Sans-serif">Created by Adrien Coquet</text><text y="120" font-size="5" font-weight="bold" font-family="&#x27;Helvetica Neue&#x27;, Helvetica, Arial-Unicode, Arial, Sans-serif">from the Noun Project</text>
  </symbol>
  <symbol xmlns="http://www.w3.org/2000/svg" version="1.2" preserveAspectRatio="xMidYMid" fill-rule="evenodd" stroke-width="28.222" stroke-linejoin="round" viewBox="0 0 2540 3175" id="difficulty">
    <defs>
      <clipPath id="a" clipPathUnits="userSpaceOnUse">
        <path d="M0 0h2540v2540H0z"></path>
      </clipPath>
    </defs>
    <g clip-path="url(#a)">
      <path fill="none" d="M213 62h2115v2417H213z"></path>
      <path d="M213 685c0-7 2-13 5-19 4-6 8-10 14-14L1245 67c6-3 12-5 19-5s13 2 19 5l1020 584c6 4 10 8 14 14 3 6 5 12 5 19l5 1171c0 7-2 13-5 19-4 6-8 10-14 14l-1013 585c-6 3-12 5-19 5s-13-2-19-5L238 1888c-6-4-11-8-14-14-4-6-5-12-5-19l-6-1170zm2033 21l-982-562-975 563 6 1126 436 250 123-99h251l221-226 359-151 147-295 249-222 167-33-2-351z"></path>
      <path fill="none" d="M848 411h812v1562H848z"></path>
      <path d="M1103 411l16 1 15 2 14 4 14 5 13 6 13 7 11 9 11 10 9 10 9 12 7 12 7 14 4 14 4 14 2 15 1 16-1 16-2 15-4 14-4 14-7 14-7 12-9 12-9 10-11 10-11 9-13 7-13 6-14 5 14 2 10 2 10 3 9 4 9 5 9 6 8 7 8 8 7 8 6 9 5 8 3 4 3 6 55 116 98-31-29-117-1-2v-10l1-2v-3l1-2v-1l1-1v-3l1-1v-1l2-2 1-2 2-2 1-2 2-2 2-2 2-1 2-2 2-1 2-1 2-1 3-1 2-1 3-1h10l2 1h3l2 1h1l1 1h3l2 1 2 2 2 1 2 2 2 1 1 2 2 2 1 2 2 2 1 2 1 2 1 2 1 3 1 2 35 140 2 2 6 4 4 5 5 5 3 5 3 6 2 6 2 6 1 6v7l-1 6-1 7-2 6-2 6-2 5 156 628v3l1 2v8l-1 2v3l-1 2v2l-1 1v2l-1 2-1 2-2 2-1 2-2 2-2 1-2 2-2 1-2 2-2 1-2 1-2 1-2 1-3 1-2 1h-5l-3 1-2-1h-5l-3-1-2-1-2-1-3-1-2-1-2-2-2-1-1-2-2-2-2-2-1-2-2-2-1-2-1-2-1-2-1-2-1-3-149-601-146 47-6 1-7 1h-13l-6-1-7-2-6-2-6-3-6-3-1-1-26 209 174 24 8 2 7 2 8 4 7 4 7 5 3 2 7 6 6 6 5 6 5 7 5 7 4 7 3 8 2 8 1 8v8l-3 283v8l-2 8-2 8-3 7-4 8-5 7-5 6-6 6-6 6-6 5-8 4-7 4-8 3-7 2-8 2h-8l-8-1-8-1-8-2-8-4-7-3-7-5-7-5-6-6-6-6-5-7-5-7-3-7-4-8-2-8-1-8-1-8 3-210-176-25-4 1-8 1 18 203v16l-2 8v1l-2 8-77 271-2 8-4 7-4 7-6 7-5 6-7 5-7 5-7 5-7 4-8 3-8 2-9 2-8 1h-8l-8-1-8-2-8-2-7-4-7-4-6-5-6-6-6-7-5-7-4-7-4-7-3-8-3-9-2-8-1-8v-8l1-8 2-8 74-262-22-249-3-3-6-9-5-9-5-10-3-9-3-11-2-10v-20l20-160-60-110-2-5-2-7-2-6v-20l1-7 2-7 2-6 3-6 3-6 4-6 3-4 89-146 4-5 2-3 2-6 5-9 6-8 7-8 8-8 8-7 9-6 9-5 9-5 10-4 6-1-10-5-13-7-11-9-11-10-9-10-9-12-7-12-7-14-4-14-4-14-2-15-1-16 1-16 2-15 4-14 4-14 7-14 7-12 9-12 9-10 11-10 11-9 13-7 13-6 14-5 14-4 15-2 16-1z"></path>
    </g><text y="2555" font-size="5" font-weight="bold" font-family="&#x27;Helvetica Neue&#x27;, Helvetica, Arial-Unicode, Arial, Sans-serif">Created by Erik Arndt</text><text y="2560" font-size="5" font-weight="bold" font-family="&#x27;Helvetica Neue&#x27;, Helvetica, Arial-Unicode, Arial, Sans-serif">from the Noun Project</text>
  </symbol>
</svg>