<svg id="Layer_1" enable-background="new 0 0 512 512" height="512" viewBox="0 0 512 512" width="512" xmlns="http://www.w3.org/2000/svg"><g><g><path clip-rule="evenodd" d="m497.633 34.977c0-19.228-15.597-34.825-34.853-34.825-19.227 0-34.824 15.597-34.824 34.825 0 19.257 15.597 34.854 34.824 34.854 19.257 0 34.853-15.597 34.853-34.854z" fill="#ffd772" fill-rule="evenodd"/></g><g><path clip-rule="evenodd" d="m462.78 69.831c19.256 0 34.853-15.597 34.853-34.854 0-19.228-15.597-34.825-34.853-34.825-4.734 0-9.294.958-13.418 2.701 12.954 5.054 22.132 17.688 22.132 32.443 0 14.464-8.829 26.867-21.406 32.124 3.95 1.54 8.219 2.411 12.692 2.411z" fill="#fdb440" fill-rule="evenodd"/></g><g><path clip-rule="evenodd" d="m166.471 504.316v-88.529c-8.917-3.369-16.933-8.597-23.526-15.22-2.992.407-1.597.639-9.178.639s-23.352-3.224-33.081-8.859v111.968h65.785z" fill="#ce9874" fill-rule="evenodd"/></g><g><path clip-rule="evenodd" d="m288.689 504.316v-92.944c-9.643 5.49-20.709 8.626-32.704 8.626-11.966 0-23.352-3.224-33.081-8.859v93.176h65.785z" fill="#ce9874" fill-rule="evenodd"/></g><g><path clip-rule="evenodd" d="m411.314 504.316v-111.969c-9.73 5.635-25.53 8.859-33.11 8.859-7.581 0-6.157-.232-9.149-.639-6.622 6.622-14.638 11.85-23.555 15.22v88.529z" fill="#ce9874" fill-rule="evenodd"/></g><g><path clip-rule="evenodd" d="m166.471 436.263c-8.917-3.34-16.933-8.568-23.526-15.191-2.992.407-6.07.61-9.178.61-10.456 0-20.331-2.411-29.131-6.738-1.336-.668-2.672-1.365-3.95-2.12v20.68c3.95.726 8.016 1.133 12.199 1.133 3.108 0 6.157-.232 9.178-.639 6.593 6.622 14.609 11.85 23.526 15.22v55.098h20.883v-68.053z" fill="#c6875e" fill-rule="evenodd"/></g><g><path clip-rule="evenodd" d="m255.985 440.504c-12.053 0-23.352-3.224-33.081-8.859v19.46c16.846 7.697 35.347 11.879 50.856 3.05v50.161h14.929v-72.467c-9.642 5.489-20.795 8.655-32.704 8.655z" fill="#c6875e" fill-rule="evenodd"/></g><g><path clip-rule="evenodd" d="m411.314 504.316v-91.492c-9.73 5.635-21.057 8.859-33.11 8.859-3.108 0-6.157-.203-9.149-.61-6.622 6.622-14.638 11.85-23.555 15.191v15.161c12.925 1.627 34.156-6.593 45.164-12.954v65.845z" fill="#c6875e" fill-rule="evenodd"/></g><g><path clip-rule="evenodd" d="m198.478 201.841c-6.419-29.829-32.965-52.194-64.71-52.194-36.567 0-66.192 29.655-66.192 66.223 0 4.037.378 8.016 1.075 11.85-20.389 11.299-34.185 33.024-34.185 57.945 0 4.066.378 8.016 1.075 11.879-20.36 11.299-34.156 32.995-34.156 57.945 0 36.568 29.625 66.194 66.192 66.194 12.053 0 23.352-3.224 33.11-8.859 9.73 5.635 21.028 8.859 33.081 8.859 3.108 0 6.186-.203 9.178-.61 25.355-20.826 111.762-157.918 55.532-219.232z" fill="#95d6a4" fill-rule="evenodd"/></g><g><path clip-rule="evenodd" d="m321.132 246.541c.697-3.863 1.046-7.813 1.046-11.879 0-11.937-3.137-23.149-8.684-32.821-11.414-19.925-32.878-33.373-57.508-33.373-24.6 0-46.093 13.448-57.508 33.373-5.518 9.672-8.684 20.883-8.684 32.821 0 4.066.378 8.016 1.075 11.879-20.389 11.269-34.185 32.995-34.185 57.945 0 4.037.378 8.016 1.075 11.85-20.36 11.299-34.156 33.024-34.156 57.945 0 7.116 1.104 13.942 3.166 20.361 3.253 10.079 8.858 19.112 16.178 26.431 6.593 6.622 14.609 11.85 23.526 15.191 7.261 2.73 15.132 4.241 23.323 4.241 12.053 0 23.352-3.224 33.11-8.859 9.73 5.635 21.028 8.859 33.081 8.859 11.908 0 23.061-3.166 32.704-8.655.145-.058.261-.145.407-.203 9.73 5.635 21.028 8.859 33.081 8.859 8.22 0 16.061-1.51 23.322-4.241 8.917-3.34 16.933-8.568 23.555-15.191 7.29-7.319 12.896-16.352 16.149-26.431 2.062-6.419 3.195-13.245 3.195-20.361 0-24.921-13.796-46.646-34.185-57.945.726-3.834 1.075-7.813 1.075-11.85-.002-24.951-13.798-46.676-34.158-57.946z" fill="#95d6a4" fill-rule="evenodd"/></g><g><path clip-rule="evenodd" d="m477.506 285.665c0-24.921-13.796-46.646-34.156-57.945.697-3.834 1.046-7.813 1.046-11.85 0-36.568-29.625-66.223-66.192-66.223-31.745 0-58.263 22.365-64.711 52.194-46.935 47.721 23.41 189.141 55.562 219.232 2.992.407 6.041.61 9.149.61 12.053 0 23.381-3.224 33.11-8.859 9.73 5.635 21.028 8.859 33.081 8.859 36.567 0 66.221-29.626 66.221-66.194 0-24.95-13.796-46.646-34.185-57.945.726-3.863 1.075-7.813 1.075-11.879z" fill="#95d6a4" fill-rule="evenodd"/></g><g><path clip-rule="evenodd" d="m355.288 304.486c0-24.95-13.796-46.675-34.156-57.945.697-3.863 1.046-7.813 1.046-11.879 0-11.937-3.137-23.149-8.684-32.821-11.414-19.925-32.878-33.373-57.508-33.373-14.696 0-28.289 4.792-39.268 12.896 24.397.203 56.841 10.78 68.168 30.56 5.518 9.672 8.684 20.883 8.684 32.821 0 4.066-.349 8.016-1.046 11.879.813.436 1.626.929 2.411 1.394 19.024 11.647 31.745 32.618 31.745 56.551 0 4.037-.378 8.016-1.075 11.85 20.389 11.298 34.156 33.024 34.156 57.945 0 2.527-1.772 15.946-3.05 19.983-.029.116-5.765 18.921-35.087 36.156.175-.103.378 0 .552 0 8.22 0 16.061-1.51 23.322-4.241 8.917-3.34 16.933-8.568 23.555-15.191 7.29-7.319 12.896-16.352 16.149-26.431 2.062-6.419 3.195-13.245 3.195-20.361 0-24.921-13.796-46.646-34.185-57.945.727-3.832 1.076-7.811 1.076-11.848z" fill="#78c2a4" fill-rule="evenodd"/></g><g><path clip-rule="evenodd" d="m477.506 285.665c0-24.921-13.796-46.646-34.156-57.945.697-3.834 1.046-7.813 1.046-11.85 0-11.938-3.137-23.149-8.684-32.821-11.414-19.954-32.878-33.402-57.508-33.402-14.696 0-28.289 4.792-39.268 12.925 24.397.203 61.051 6.474 72.378 26.283 5.518 9.672 8.684 20.883 8.684 32.821 0 4.037-.349 8.016-1.046 11.85.813.465 1.626.929 2.411 1.423 19.024 11.618 31.745 32.588 31.745 56.522 0 4.066-.378 8.016-1.075 11.879 20.389 11.298 34.156 32.995 34.156 57.945 0 2.527-.116 4.996-.407 7.465-.494 4.299-1.365 8.481-2.643 12.489-.029.145-.087.261-.116.407-.726 2.207-1.568 4.386-2.498 6.506-3.34 7.465-7.987 14.203-13.68 19.896-2.353 2.382-20.302 11.65-23.003 13.625h.552c8.22 0 16.061-1.481 23.322-4.212 8.917-3.369 16.933-8.597 23.555-15.22 7.29-7.319 12.896-16.323 16.149-26.402 2.062-6.419 3.195-13.274 3.195-20.361 0-24.95-13.796-46.646-34.185-57.945.727-3.862 1.076-7.812 1.076-11.878z" fill="#78c2a4" fill-rule="evenodd"/></g><g><path clip-rule="evenodd" d="m189.794 234.662c0-11.937 3.166-23.149 8.684-32.821-6.419-29.829-32.965-52.194-64.71-52.194-5.344 0-10.572.639-15.539 1.859 23.497 6.535 45.93 26.53 51.129 50.55-5.547 9.672-8.713 20.883-8.713 32.821 0 4.066.378 8.016 1.075 11.879-20.36 11.269-34.156 32.995-34.156 57.945 0 4.037.349 8.016 1.046 11.85-20.36 11.298-34.156 33.024-34.156 57.945 0 7.116 3.184 30.166 6.233 34.9 1.22 1.917 2.556 3.776 3.95 5.548 8.8 4.328 18.675 6.738 29.131 6.738 3.108 0 6.186-.203 9.178-.61-7.319-7.319-12.925-16.352-16.178-26.431-2.062-6.419-3.166-13.245-3.166-20.361 0-24.921 13.796-46.646 34.156-57.945-.697-3.834-1.075-7.813-1.075-11.85 0-24.95 13.796-46.675 34.185-57.945-.697-3.862-1.074-7.812-1.074-11.878z" fill="#78c2a4" fill-rule="evenodd"/></g><g><path d="m451.744 512h-391.488c-4.245 0-7.685-3.441-7.685-7.685s3.44-7.685 7.685-7.685h391.488c4.245 0 7.685 3.441 7.685 7.685s-3.441 7.685-7.685 7.685z" fill="#95d6a4"/></g><g><path d="m203.931 312.723c-1.491 0-2.997-.432-4.321-1.335-3.507-2.39-4.413-7.171-2.022-10.678 4.191-6.15 10.81-9.77 18.16-9.932 7.602-.18 14.961 3.441 19.612 9.656 2.543 3.398 1.849 8.214-1.549 10.756-3.397 2.543-8.214 1.849-10.756-1.549-1.683-2.25-4.282-3.541-6.967-3.499-1.669.037-4.029.626-5.799 3.223-1.488 2.183-3.902 3.358-6.358 3.358z" fill="#78c2a4"/></g><g><path d="m243.344 245.658c-1.491 0-2.997-.432-4.321-1.335-3.507-2.39-4.413-7.171-2.022-10.678 4.192-6.15 10.81-9.77 18.159-9.932 7.664-.169 14.961 3.441 19.612 9.656 2.543 3.398 1.849 8.214-1.549 10.756-3.398 2.544-8.215 1.849-10.756-1.549-1.683-2.249-4.304-3.536-6.966-3.499-1.669.037-4.029.626-5.799 3.223-1.488 2.183-3.901 3.358-6.358 3.358z" fill="#78c2a4"/></g><g><path d="m307.982 312.723c-2.456 0-4.869-1.175-6.357-3.357-1.768-2.594-4.119-3.184-5.781-3.222-.06-.001-.121-.003-.182-.003-2.617 0-5.152 1.304-6.813 3.515-2.55 3.391-7.367 4.075-10.76 1.525-3.392-2.551-4.075-7.368-1.525-10.76 4.562-6.068 11.67-9.648 19.101-9.648.178 0 .356.002.536.007 7.332.17 13.938 3.79 18.124 9.931 2.39 3.507 1.485 8.288-2.022 10.678-1.324.902-2.831 1.334-4.321 1.334z" fill="#78c2a4"/></g><g><path d="m183.455 384.435c-1.489.001-2.993-.431-4.317-1.332-3.508-2.387-4.418-7.168-2.029-10.676 4.171-6.13 10.772-9.744 18.109-9.914 7.606-.181 14.971 3.42 19.629 9.624 2.549 3.394 1.863 8.211-1.531 10.759-3.393 2.549-8.21 1.863-10.758-1.531-1.687-2.246-4.289-3.552-6.982-3.487-1.662.039-4.01.624-5.76 3.196-1.488 2.184-3.904 3.361-6.361 3.361z" fill="#78c2a4"/></g><g><path d="m328.487 384.435c-2.452.001-4.862-1.171-6.351-3.348-1.768-2.586-4.131-3.173-5.802-3.21-2.677-.058-5.293 1.243-6.978 3.487-2.547 3.394-7.365 4.079-10.758 1.531-3.394-2.549-4.079-7.365-1.531-10.759 4.651-6.195 11.95-9.786 19.608-9.624 7.343.163 13.958 3.772 18.15 9.901 2.395 3.503 1.497 8.285-2.006 10.681-1.328.906-2.838 1.341-4.332 1.341z" fill="#78c2a4"/></g><g><path d="m85.75 293.35c-1.489 0-2.993-.431-4.317-1.332-3.508-2.387-4.418-7.168-2.029-10.676 4.171-6.13 10.772-9.744 18.11-9.914 7.624-.159 14.97 3.421 19.628 9.624 2.548 3.394 1.862 8.211-1.532 10.759-3.395 2.549-8.212 1.862-10.759-1.532-1.686-2.245-4.331-3.555-6.979-3.487-1.662.039-4.011.624-5.761 3.196-1.488 2.185-3.903 3.362-6.361 3.362z" fill="#78c2a4"/></g><g><path d="m149.876 226.965c-2.335 0-4.641-1.06-6.151-3.071-1.722-2.293-5.793-3.912-9.775-3.912-.107 0-.214.001-.322.004-3.158.07-5.74 1.13-6.906 2.836-2.396 3.503-7.176 4.403-10.681 2.007-3.503-2.395-4.402-7.178-2.006-10.681 4.015-5.872 11.033-9.345 19.253-9.527 9.213-.191 17.921 3.645 22.727 10.046 2.549 3.394 1.863 8.211-1.53 10.759-1.383 1.037-3.003 1.539-4.609 1.539z" fill="#78c2a4"/></g><g><path d="m54.335 364.975c-1.49 0-2.996-.432-4.321-1.335-3.507-2.39-4.413-7.17-2.023-10.678 4.186-6.142 10.791-9.762 18.124-9.932 7.676-.176 14.967 3.428 19.638 9.642 2.551 3.393 1.867 8.21-1.525 10.76-3.393 2.551-8.21 1.868-10.76-1.525-1.7-2.262-4.332-3.584-6.996-3.512-1.661.039-4.012.629-5.778 3.222-1.49 2.183-3.903 3.358-6.359 3.358z" fill="#78c2a4"/></g><g><path d="m426.25 293.35c-2.452 0-4.862-1.171-6.351-3.348-1.768-2.586-4.131-3.173-5.803-3.21-2.686-.059-5.291 1.245-6.975 3.487-2.55 3.394-7.366 4.079-10.759 1.532-3.394-2.548-4.079-7.365-1.532-10.759 4.651-6.195 11.981-9.773 19.607-9.625 7.344.163 13.959 3.771 18.151 9.901 2.395 3.503 1.497 8.285-2.006 10.681-1.328.906-2.838 1.341-4.332 1.341z" fill="#78c2a4"/></g><g><path d="m391.6 226.169c-2.452.001-4.862-1.171-6.351-3.348-1.766-2.583-4.12-3.171-5.784-3.21-2.665-.061-5.304 1.246-7.004 3.5-2.556 3.388-7.375 4.063-10.762 1.508-3.389-2.556-4.064-7.374-1.509-10.762 4.673-6.194 11.985-9.778 19.633-9.611 7.326.171 13.929 3.779 18.115 9.901 2.395 3.503 1.497 8.285-2.006 10.681-1.328.906-2.838 1.341-4.332 1.341z" fill="#78c2a4"/></g><g><path d="m456.641 364.975c-2.456 0-4.87-1.175-6.358-3.358-1.769-2.597-4.128-3.185-5.797-3.222-2.673-.053-5.283 1.249-6.967 3.499-2.542 3.399-7.358 4.092-10.756 1.549s-4.091-7.358-1.549-10.756c4.651-6.215 11.964-9.842 19.613-9.656 7.349.163 13.967 3.783 18.159 9.932 2.389 3.508 1.484 8.288-2.023 10.678-1.326.901-2.832 1.334-4.322 1.334z" fill="#78c2a4"/></g><g><path d="m383.286 35.256h-22.626c-4.245 0-7.685-3.441-7.685-7.685s3.44-7.685 7.685-7.685h22.626c4.245 0 7.685 3.441 7.685 7.685s-3.44 7.685-7.685 7.685z" fill="#ffd772"/></g><g><path d="m482.066 141.299c-4.245 0-7.685-3.441-7.685-7.685v-22.626c0-4.244 3.44-7.685 7.685-7.685s7.685 3.441 7.685 7.685v22.626c0 4.244-3.44 7.685-7.685 7.685z" fill="#ffd772"/></g><g><path d="m377.041 96.105c-1.964 0-3.928-.748-5.429-2.246-3.004-2.998-3.008-7.864-.01-10.867l15.975-16.004c2.997-3.003 7.862-3.009 10.868-.01 3.004 2.998 3.008 7.864.01 10.867l-15.975 16.004c-1.5 1.504-3.47 2.256-5.439 2.256z" fill="#ffd772"/></g><g><path d="m423.801 128.26c-.94 0-1.894-.173-2.821-.539-3.947-1.559-5.884-6.023-4.325-9.97l8.306-21.029c1.559-3.947 6.026-5.883 9.97-4.324 3.947 1.559 5.884 6.023 4.325 9.97l-8.306 21.029c-1.192 3.02-4.087 4.863-7.149 4.863z" fill="#ffd772"/></g><g><path clip-rule="evenodd" d="m319.244 87.694c0-10.979-6.012-17.863-14.435-21.116 2.672-4.241 4.211-9.294 4.211-14.668 0-15.249-12.344-27.593-27.563-27.593-2.963 0-5.78.465-8.452 1.336-23.323-30.323-69.038-24.863-87.075 6.68-5.112 8.917-7.987 19.867-7.551 32.705-12.867 0-23.293 9.585-23.293 22.655 0 .813.029 1.597.116 2.382 1.191 11.386 10.833 20.273 22.538 20.273h118.849c12.489.001 22.655-11.53 22.655-22.654z" fill="#f9f6f6" fill-rule="evenodd"/></g><g><path clip-rule="evenodd" d="m178.379 65.039c-.436-12.838 2.44-23.788 7.551-32.705-.436.203-.842.407-1.249.639-7.116-21.058-23.003-31.456-39.471-32.821-2.469-.203-4.996-.203-7.464 0-22.509 1.859-43.741 20.186-42.695 50.974-11.066 0-20.011 8.249-20.011 19.489 0 10.747 8.713 19.46 19.46 19.46h60.702c-.087-.784-.116-1.568-.116-2.382 0-13.069 10.427-22.654 23.293-22.654z" fill="#f9f6f6" fill-rule="evenodd"/></g><g><path clip-rule="evenodd" d="m178.379 65.039c-.436-12.838 2.44-23.788 7.551-32.705-.436.203-.842.407-1.249.639-7.116-21.058-23.003-31.456-39.471-32.821-2.469-.203-4.996-.203-7.464 0-.668.058-1.336.116-2.004.203 3.921 10.95 6.128 23.265 6.128 36.248 0 20.419-5.431 39.095-14.406 53.472h27.737c-.087-.784-.116-1.568-.116-2.382.001-13.069 10.428-22.654 23.294-22.654z" fill="#ecdaec" fill-rule="evenodd"/></g><g><path clip-rule="evenodd" d="m296.589 110.349c12.489 0 22.654-11.531 22.654-22.655 0-10.979-6.012-17.863-14.435-21.116 2.672-4.241 4.211-9.294 4.211-14.668 0-15.249-12.344-27.593-27.563-27.593-2.963 0-5.78.465-8.452 1.336-9.585-12.46-22.945-18.879-36.625-19.925 6.332 13.041 9.991 28.667 9.991 45.484 0 23.207-7 44.148-18.298 59.136h68.517z" fill="#ecdaec" fill-rule="evenodd"/></g></g></svg>