<svg id="Layer_1" enable-background="new 0 0 512 512" height="512" viewBox="0 0 512 512" width="512" xmlns="http://www.w3.org/2000/svg"><g><g><path clip-rule="evenodd" d="m312.783 445.002c16.587-20.734-38.021-74.818 11.827-80.425-171.474-98.559-49.789-97.596-324.61-48.447v191.868c0 1.707 1.384 3.091 3.091 3.091h92.313c14.221-2.104 164.407-.001 217.379-66.087z" fill="#ce9874" fill-rule="evenodd"/></g><g><path clip-rule="evenodd" d="m350.074 364.577c-27.596 0-32.298 33.729-11.593 52.682 35.335 32.298 32.823 93.829-106.5 93.829h276.928c1.707 0 3.091-1.384 3.091-3.091v-143.42c-60.069 0-77.327 0-161.926 0z" fill="#ce9874" fill-rule="evenodd"/></g><g><path clip-rule="evenodd" d="m252.569 511.088c139.352 0 141.834-61.53 106.529-93.829-20.733-18.953-16.003-52.682 11.593-52.682l-23.771-8.644-22.31 8.644c-49.848 5.607-26.165 59.691-42.752 80.425-52.943 66.086-213.438 63.983-227.659 66.086z" fill="#90d8f9" fill-rule="evenodd"/></g><g><path clip-rule="evenodd" d="m252.569 511.088c139.352 0 141.834-61.53 106.529-93.829-20.733-18.953-16.003-52.682 11.593-52.682h-17.141c-27.596 0-38.868 40.3-18.134 59.253 35.305 32.298 12.09 71.372-118.911 87.258z" fill="#75cef8" fill-rule="evenodd"/></g><g><path d="m432.606 158.32c-4.267 0-7.726-3.459-7.726-7.726v-17.726c0-4.267 3.459-7.726 7.726-7.726s7.726 3.459 7.726 7.726v17.726c.001 4.267-3.458 7.726-7.726 7.726z" fill="#ffd772"/></g><g><path d="m379.371 87.357h-17.755c-4.267 0-7.726-3.459-7.726-7.726s3.459-7.726 7.726-7.726h17.755c4.267 0 7.726 3.459 7.726 7.726s-3.459 7.726-7.726 7.726z" fill="#ffd772"/></g><g><path d="m482.805 137.528c-1.974 0-3.949-.752-5.457-2.257l-12.557-12.528c-3.021-3.014-3.026-7.906-.013-10.927 3.014-3.021 7.905-3.027 10.927-.013l12.557 12.528c3.021 3.014 3.026 7.906.013 10.927-1.51 1.513-3.489 2.27-5.47 2.27z" fill="#ffd772"/></g><g><path d="m394.965 49.685c-1.974 0-3.949-.752-5.457-2.257l-12.557-12.528c-3.021-3.014-3.026-7.906-.013-10.927s7.905-3.026 10.927-.013l12.557 12.528c3.021 3.014 3.026 7.906.013 10.927-1.509 1.514-3.49 2.27-5.47 2.27z" fill="#ffd772"/></g><g><path d="m382.408 137.528c-1.98 0-3.96-.757-5.47-2.269-3.014-3.021-3.008-7.913.013-10.927l12.557-12.528c3.021-3.014 7.913-3.008 10.927.013s3.008 7.913-.013 10.927l-12.557 12.528c-1.508 1.504-3.482 2.256-5.457 2.256z" fill="#ffd772"/></g><g><path d="m432.606 34.091c-4.267 0-7.726-3.459-7.726-7.726v-17.727c0-4.267 3.459-7.726 7.726-7.726s7.726 3.459 7.726 7.726v17.726c.001 4.268-3.458 7.727-7.726 7.727z" fill="#ffd772"/></g><g><path d="m503.597 87.328h-17.755c-4.267 0-7.726-3.459-7.726-7.726s3.459-7.726 7.726-7.726h17.755c4.267 0 7.726 3.459 7.726 7.726s-3.459 7.726-7.726 7.726z" fill="#ffd772"/></g><g><path d="m470.248 49.685c-1.98 0-3.96-.757-5.47-2.269-3.014-3.021-3.008-7.913.013-10.927l12.557-12.528c3.021-3.014 7.912-3.008 10.927.013 3.014 3.021 3.008 7.913-.013 10.927l-12.557 12.528c-1.508 1.504-3.482 2.256-5.457 2.256z" fill="#ffd772"/></g><g><path clip-rule="evenodd" d="m101.39 425.144c-.263-10.017 0-86.966-35.247-86.966-27.771 0-35.218 67.926-35.218 86.966 0 11.681 9.549 21.23 21.23 21.23h13.754 14.251c11.681.001 21.492-9.549 21.23-21.23z" fill="#ccf49e" fill-rule="evenodd"/></g><g><path clip-rule="evenodd" d="m458.742 78.463c0-13.287-10.776-24.092-24.092-24.092s-24.092 10.805-24.092 24.092c0 13.316 10.776 24.092 24.092 24.092 13.317 0 24.092-10.776 24.092-24.092z" fill="#ffd772" fill-rule="evenodd"/></g><g><path clip-rule="evenodd" d="m101.39 425.144c-.263-10.017 0-86.966-35.247-86.966-4.964 0-9.286 2.19-13.053 5.87 20.208 18.164 20.062 72.744 20.266 81.096.146 6.483-2.803 12.294-7.447 16.208-3.738 3.125-8.556 5.023-13.754 5.023h13.754 14.251c11.681 0 21.492-9.55 21.23-21.231z" fill="#b3e59e" fill-rule="evenodd"/></g><g><path clip-rule="evenodd" d="m228.872 308.42 37.276-101.772-78.612-94.5c-5.928-7.155-11.944-7.155-17.901 0l-95.579 114.913-74.056 89.069h141.455z" fill="#95d6a4" fill-rule="evenodd"/></g><g><path clip-rule="evenodd" d="m266.148 206.648-78.612-94.5c-5.928-7.155-11.944-7.155-17.901 0l-23.595 28.385c20.558 18.427 43.365 75.373 31.567 128.201 10.25 2.541 16.937 12.353 21.347 24.56z" fill="#78c2a4" fill-rule="evenodd"/></g><g><path clip-rule="evenodd" d="m207.481 355.057c-.146-6.22-.117-38.373-8.527-61.764-5.14-14.222-13.375-25.202-26.691-25.202-16.645 0-25.99 24.384-30.808 48.039-3.241 15.799-4.41 31.305-4.41 38.927 0 11.681 9.549 21.23 21.201 21.23h13.783 14.221c8.264 0 15.594-4.789 19.098-11.71 1.432-2.862 2.22-6.103 2.133-9.52z" fill="#ccf49e" fill-rule="evenodd"/></g><g><path clip-rule="evenodd" d="m207.481 355.057c-.146-6.22-.117-38.373-8.527-61.764-4.41-12.207-11.097-22.019-21.347-24.56-1.665-.409-3.475-.642-5.344-.642-4.994 0-9.315 2.19-13.053 5.87 5.081 4.585 8.877 11.448 11.71 19.332 8.439 23.392 8.41 55.544 8.556 61.764.088 3.417-.701 6.658-2.161 9.52-1.285 2.57-3.095 4.848-5.286 6.687-3.738 3.125-8.585 5.023-13.783 5.023h13.783 14.221c8.264 0 15.594-4.789 19.098-11.71 1.432-2.862 2.22-6.103 2.133-9.52z" fill="#b3e59e" fill-rule="evenodd"/></g><g><path clip-rule="evenodd" d="m512 364.577-174.95-225.504c-6.132-7.914-12.323-7.914-18.485 0l-52.418 67.575-67.194 86.645c8.41 23.392 8.381 55.544 8.527 61.764.088 3.417-.701 6.658-2.132 9.52h119.262 3.212 42.869 49.965c5.432-14.893 13.433-26.399 24.88-26.399 13.667 0 22.018 11.623 27.1 26.399z" fill="#95d6a4" fill-rule="evenodd"/></g><g><path clip-rule="evenodd" d="m512 364.577-174.95-225.504c-6.132-7.914-12.323-7.914-18.485 0l-40.299 51.952c54.695 52.069 78.729 103.203 22.018 173.553h24.325 3.212 42.869 49.965c5.432-14.893 13.433-26.399 24.88-26.399 13.667 0 22.018 11.623 27.1 26.399h39.365z" fill="#78c2a4" fill-rule="evenodd"/></g><g><path clip-rule="evenodd" d="m472.636 364.577c8.001 23.275 7.972 54.434 8.118 60.567-.146-6.133-.117-37.292-8.118-60.567zm39.364 143.421v-143.42h-39.364c8.001 23.275 7.972 54.434 8.118 60.567.088 3.417-.701 6.658-2.132 9.52-3.504 6.921-10.834 11.71-19.098 11.71h-14.221-13.783c-.584 0-2.628 20.5-11.768 35.423-10.279 16.85-27.771 28.414-28.618 29.29h117.777c1.705 0 3.089-1.384 3.089-3.09z" fill="#c6875e" fill-rule="evenodd"/></g><g><path clip-rule="evenodd" d="m480.754 425.144c-.146-6.133-.117-37.292-8.118-60.567-5.081-14.777-13.433-26.399-27.1-26.399-11.447 0-19.449 11.506-24.88 26.399-7.768 21.26-10.367 49.382-10.367 60.567 0 11.681 9.549 21.23 21.23 21.23h13.783 14.221c11.682.001 21.523-9.549 21.231-21.23z" fill="#ccf49e" fill-rule="evenodd"/></g><g><path clip-rule="evenodd" d="m480.754 425.144c-.146-6.249-.117-38.373-8.556-61.764-4.38-12.207-11.097-22.019-21.318-24.56-1.694-.409-3.475-.642-5.344-.642-4.994 0-9.315 2.19-13.053 5.87 5.081 4.585 8.877 11.448 11.71 19.332 8.439 23.392 8.41 55.515 8.556 61.764.058 3.417-.701 6.658-2.161 9.52-1.285 2.57-3.095 4.818-5.286 6.687-3.738 3.125-8.585 5.023-13.783 5.023h13.783 14.221c8.264 0 15.594-4.789 19.098-11.71 1.432-2.862 2.22-6.103 2.133-9.52z" fill="#b3e59e" fill-rule="evenodd"/></g><g><path d="m290.444 292.405h-5.227c-4.267 0-7.726-3.459-7.726-7.726s3.459-7.726 7.726-7.726h5.227c4.267 0 7.726 3.459 7.726 7.726 0 4.266-3.459 7.726-7.726 7.726z" fill="#ccf49e"/></g><g><path d="m340.408 242.497h-5.227c-4.267 0-7.726-3.459-7.726-7.726s3.459-7.726 7.726-7.726h5.227c4.267 0 7.726 3.459 7.726 7.726s-3.458 7.726-7.726 7.726z" fill="#ccf49e"/></g><g><path d="m373.64 316.147h-5.198c-4.267 0-7.726-3.459-7.726-7.726s3.459-7.726 7.726-7.726h5.198c4.267 0 7.726 3.459 7.726 7.726.001 4.266-3.459 7.726-7.726 7.726z" fill="#ccf49e"/></g><g><path d="m204.969 212.272h-5.227c-4.267 0-7.726-3.459-7.726-7.726s3.459-7.726 7.726-7.726h5.227c4.267 0 7.726 3.459 7.726 7.726s-3.459 7.726-7.726 7.726z" fill="#ccf49e"/></g><g><path d="m132.519 242.497h-5.198c-4.267 0-7.726-3.459-7.726-7.726s3.459-7.726 7.726-7.726h5.198c4.267 0 7.726 3.459 7.726 7.726s-3.459 7.726-7.726 7.726z" fill="#ccf49e"/></g><g><path d="m141.163 435.557h-5.227c-4.267 0-7.726-3.459-7.726-7.726s3.459-7.726 7.726-7.726h5.227c4.267 0 7.726 3.459 7.726 7.726s-3.459 7.726-7.726 7.726z" fill="#ccf49e"/></g><g><path d="m240.391 412.253h-5.198c-4.267 0-7.726-3.459-7.726-7.726s3.459-7.726 7.726-7.726h5.198c4.267 0 7.726 3.459 7.726 7.726.001 4.267-3.459 7.726-7.726 7.726z" fill="#ccf49e"/></g><g><path d="m198.136 453.02h-5.227c-4.267 0-7.726-3.459-7.726-7.726s3.459-7.726 7.726-7.726h5.227c4.267 0 7.726 3.459 7.726 7.726.001 4.267-3.459 7.726-7.726 7.726z" fill="#ccf49e"/></g><g><path clip-rule="evenodd" d="m458.742 78.463c0-13.287-10.776-24.092-24.092-24.092-3.446 0-6.716.73-9.666 2.015 7.534 4.088 12.674 12.061 12.674 21.201 0 9.871-5.957 18.369-14.455 22.077 3.417 1.84 7.301 2.891 11.447 2.891 13.317 0 24.092-10.776 24.092-24.092z" fill="#fdb440" fill-rule="evenodd"/></g><g><path d="m172.03 410.793c-4.267 0-7.726-3.459-7.726-7.726v-47.133c0-4.267 3.459-7.726 7.726-7.726s7.726 3.459 7.726 7.726v47.133c0 4.267-3.459 7.726-7.726 7.726z" fill="#fdb440"/></g><g><path d="m445.302 480.851c-4.267 0-7.726-3.459-7.726-7.726v-47.133c0-4.267 3.459-7.726 7.726-7.726s7.726 3.459 7.726 7.726v47.133c.001 4.267-3.459 7.726-7.726 7.726z" fill="#fdb440"/></g><g><path d="m65.909 480.851c-4.267 0-7.726-3.459-7.726-7.726v-47.133c0-4.267 3.459-7.726 7.726-7.726s7.726 3.459 7.726 7.726v47.133c0 4.267-3.459 7.726-7.726 7.726z" fill="#fdb440"/></g></g></svg>