<svg width="0" height="0" class="hidden">
  <symbol xmlns="http://www.w3.org/2000/svg" viewBox="0 0 512 512" id="condition">
    <path clip-rule="evenodd" d="M497.633 34.977c0-19.228-15.597-34.825-34.853-34.825-19.227 0-34.824 15.597-34.824 34.825 0 19.257 15.597 34.854 34.824 34.854 19.257 0 34.853-15.597 34.853-34.854z" fill="#ffd772" fill-rule="evenodd"></path>
    <path clip-rule="evenodd" d="M462.78 69.831c19.256 0 34.853-15.597 34.853-34.854 0-19.228-15.597-34.825-34.853-34.825-4.734 0-9.294.958-13.418 2.701 12.954 5.054 22.132 17.688 22.132 32.443 0 14.464-8.829 26.867-21.406 32.124 3.95 1.54 8.219 2.411 12.692 2.411z" fill="#fdb440" fill-rule="evenodd"></path>
    <path clip-rule="evenodd" d="M166.471 504.316v-88.529a66.265 66.265 0 01-23.526-15.22c-2.992.407-1.597.639-9.178.639s-23.352-3.224-33.081-8.859v111.968h65.785zm122.218 0v-92.944c-9.643 5.49-20.709 8.626-32.704 8.626-11.966 0-23.352-3.224-33.081-8.859v93.176h65.785zm122.625 0V392.347c-9.73 5.635-25.53 8.859-33.11 8.859-7.581 0-6.157-.232-9.149-.639a66.665 66.665 0 01-23.555 15.22v88.529z" fill="#ce9874" fill-rule="evenodd"></path>
    <path clip-rule="evenodd" d="M166.471 436.263a65.802 65.802 0 01-23.526-15.191 68.23 68.23 0 01-9.178.61c-10.456 0-20.331-2.411-29.131-6.738-1.336-.668-2.672-1.365-3.95-2.12v20.68a67.342 67.342 0 0012.199 1.133c3.108 0 6.157-.232 9.178-.639a66.292 66.292 0 0023.526 15.22v55.098h20.883v-68.053zm89.514 4.241c-12.053 0-23.352-3.224-33.081-8.859v19.46c16.846 7.697 35.347 11.879 50.856 3.05v50.161h14.929v-72.467a65.894 65.894 0 01-32.704 8.655zm155.329 63.812v-91.492c-9.73 5.635-21.057 8.859-33.11 8.859-3.108 0-6.157-.203-9.149-.61-6.622 6.622-14.638 11.85-23.555 15.191v15.161c12.925 1.627 34.156-6.593 45.164-12.954v65.845z" fill="#c6875e" fill-rule="evenodd"></path>
    <path clip-rule="evenodd" d="M198.478 201.841c-6.419-29.829-32.965-52.194-64.71-52.194-36.567 0-66.192 29.655-66.192 66.223 0 4.037.378 8.016 1.075 11.85-20.389 11.299-34.185 33.024-34.185 57.945 0 4.066.378 8.016 1.075 11.879-20.36 11.299-34.156 32.995-34.156 57.945 0 36.568 29.625 66.194 66.192 66.194a65.982 65.982 0 0033.11-8.859c9.73 5.635 21.028 8.859 33.081 8.859a68.23 68.23 0 009.178-.61c25.355-20.826 111.762-157.918 55.532-219.232z" fill="#95d6a4" fill-rule="evenodd"></path>
    <path clip-rule="evenodd" d="M321.132 246.541a66.692 66.692 0 001.046-11.879c0-11.937-3.137-23.149-8.684-32.821-11.414-19.925-32.878-33.373-57.508-33.373-24.6 0-46.093 13.448-57.508 33.373a66.056 66.056 0 00-8.684 32.821c0 4.066.378 8.016 1.075 11.879-20.389 11.269-34.185 32.995-34.185 57.945 0 4.037.378 8.016 1.075 11.85-20.36 11.299-34.156 33.024-34.156 57.945 0 7.116 1.104 13.942 3.166 20.361a66.118 66.118 0 0016.178 26.431 65.829 65.829 0 0023.526 15.191 66.194 66.194 0 0023.323 4.241 65.982 65.982 0 0033.11-8.859c9.73 5.635 21.028 8.859 33.081 8.859a65.9 65.9 0 0032.704-8.655c.145-.058.261-.145.407-.203 9.73 5.635 21.028 8.859 33.081 8.859 8.22 0 16.061-1.51 23.322-4.241 8.917-3.34 16.933-8.568 23.555-15.191a66.393 66.393 0 0016.149-26.431 66.397 66.397 0 003.195-20.361c0-24.921-13.796-46.646-34.185-57.945.726-3.834 1.075-7.813 1.075-11.85-.002-24.951-13.798-46.676-34.158-57.946z" fill="#95d6a4" fill-rule="evenodd"></path>
    <path clip-rule="evenodd" d="M477.506 285.665c0-24.921-13.796-46.646-34.156-57.945a66.367 66.367 0 001.046-11.85c0-36.568-29.625-66.223-66.192-66.223-31.745 0-58.263 22.365-64.711 52.194-46.935 47.721 23.41 189.141 55.562 219.232 2.992.407 6.041.61 9.149.61 12.053 0 23.381-3.224 33.11-8.859 9.73 5.635 21.028 8.859 33.081 8.859 36.567 0 66.221-29.626 66.221-66.194 0-24.95-13.796-46.646-34.185-57.945.726-3.863 1.075-7.813 1.075-11.879z" fill="#95d6a4" fill-rule="evenodd"></path>
    <path clip-rule="evenodd" d="M355.288 304.486c0-24.95-13.796-46.675-34.156-57.945a66.692 66.692 0 001.046-11.879c0-11.937-3.137-23.149-8.684-32.821-11.414-19.925-32.878-33.373-57.508-33.373-14.696 0-28.289 4.792-39.268 12.896 24.397.203 56.841 10.78 68.168 30.56a66.056 66.056 0 018.684 32.821c0 4.066-.349 8.016-1.046 11.879.813.436 1.626.929 2.411 1.394 19.024 11.647 31.745 32.618 31.745 56.551 0 4.037-.378 8.016-1.075 11.85 20.389 11.298 34.156 33.024 34.156 57.945 0 2.527-1.772 15.946-3.05 19.983-.029.116-5.765 18.921-35.087 36.156.175-.103.378 0 .552 0 8.22 0 16.061-1.51 23.322-4.241 8.917-3.34 16.933-8.568 23.555-15.191a66.393 66.393 0 0016.149-26.431 66.397 66.397 0 003.195-20.361c0-24.921-13.796-46.646-34.185-57.945.727-3.832 1.076-7.811 1.076-11.848zm122.218-18.821c0-24.921-13.796-46.646-34.156-57.945a66.367 66.367 0 001.046-11.85c0-11.938-3.137-23.149-8.684-32.821-11.414-19.954-32.878-33.402-57.508-33.402-14.696 0-28.289 4.792-39.268 12.925 24.397.203 61.051 6.474 72.378 26.283a66.056 66.056 0 018.684 32.821c0 4.037-.349 8.016-1.046 11.85.813.465 1.626.929 2.411 1.423 19.024 11.618 31.745 32.588 31.745 56.522a66.69 66.69 0 01-1.075 11.879c20.389 11.298 34.156 32.995 34.156 57.945 0 2.527-.116 4.996-.407 7.465-.494 4.299-1.365 8.481-2.643 12.489-.029.145-.087.261-.116.407a73.089 73.089 0 01-2.498 6.506 66.585 66.585 0 01-13.68 19.896c-2.353 2.382-20.302 11.65-23.003 13.625h.552c8.22 0 16.061-1.481 23.322-4.212a66.638 66.638 0 0023.555-15.22c7.29-7.319 12.896-16.323 16.149-26.402a66.537 66.537 0 003.195-20.361c0-24.95-13.796-46.646-34.185-57.945.727-3.862 1.076-7.812 1.076-11.878zm-287.712-51.003a66.059 66.059 0 018.684-32.821c-6.419-29.829-32.965-52.194-64.71-52.194a65.22 65.22 0 00-15.539 1.859c23.497 6.535 45.93 26.53 51.129 50.55-5.547 9.672-8.713 20.883-8.713 32.821 0 4.066.378 8.016 1.075 11.879-20.36 11.269-34.156 32.995-34.156 57.945 0 4.037.349 8.016 1.046 11.85-20.36 11.298-34.156 33.024-34.156 57.945 0 7.116 3.184 30.166 6.233 34.9a68.5 68.5 0 003.95 5.548c8.8 4.328 18.675 6.738 29.131 6.738a68.23 68.23 0 009.178-.61 66.13 66.13 0 01-16.178-26.431c-2.062-6.419-3.166-13.245-3.166-20.361 0-24.921 13.796-46.646 34.156-57.945a66.365 66.365 0 01-1.075-11.85c0-24.95 13.796-46.675 34.185-57.945a66.67 66.67 0 01-1.074-11.878z" fill="#78c2a4" fill-rule="evenodd"></path>
    <path d="M451.744 512H60.256a7.685 7.685 0 110-15.37h391.488a7.685 7.685 0 110 15.37z" fill="#95d6a4"></path>
    <path d="M203.931 312.723a7.684 7.684 0 01-6.343-12.013c4.191-6.15 10.81-9.77 18.16-9.932 7.602-.18 14.961 3.441 19.612 9.656a7.683 7.683 0 01-1.549 10.756 7.684 7.684 0 01-10.756-1.549c-1.683-2.25-4.282-3.541-6.967-3.499-1.669.037-4.029.626-5.799 3.223a7.679 7.679 0 01-6.358 3.358zm39.413-67.065a7.684 7.684 0 01-6.343-12.013c4.192-6.15 10.81-9.77 18.159-9.932 7.664-.169 14.961 3.441 19.612 9.656a7.683 7.683 0 01-1.549 10.756 7.682 7.682 0 01-10.756-1.549c-1.683-2.249-4.304-3.536-6.966-3.499-1.669.037-4.029.626-5.799 3.223a7.677 7.677 0 01-6.358 3.358zm64.638 67.065a7.678 7.678 0 01-6.357-3.357c-1.768-2.594-4.119-3.184-5.781-3.222-.06-.001-.121-.003-.182-.003-2.617 0-5.152 1.304-6.813 3.515a7.685 7.685 0 01-12.285-9.235c4.562-6.068 11.67-9.648 19.101-9.648.178 0 .356.002.536.007 7.332.17 13.938 3.79 18.124 9.931a7.685 7.685 0 01-6.343 12.012zm-124.527 71.712a7.683 7.683 0 01-6.346-12.008c4.171-6.13 10.772-9.744 18.109-9.914 7.606-.181 14.971 3.42 19.629 9.624a7.683 7.683 0 01-1.531 10.759 7.682 7.682 0 01-10.758-1.531c-1.687-2.246-4.289-3.552-6.982-3.487-1.662.039-4.01.624-5.76 3.196a7.683 7.683 0 01-6.361 3.361zm145.032 0a7.676 7.676 0 01-6.351-3.348c-1.768-2.586-4.131-3.173-5.802-3.21-2.677-.058-5.293 1.243-6.978 3.487a7.684 7.684 0 01-12.289-9.228c4.651-6.195 11.95-9.786 19.608-9.624 7.343.163 13.958 3.772 18.15 9.901a7.686 7.686 0 01-6.338 12.022zM85.75 293.35a7.683 7.683 0 01-6.346-12.008c4.171-6.13 10.772-9.744 18.11-9.914 7.624-.159 14.97 3.421 19.628 9.624a7.685 7.685 0 01-12.291 9.227c-1.686-2.245-4.331-3.555-6.979-3.487-1.662.039-4.011.624-5.761 3.196a7.68 7.68 0 01-6.361 3.362zm64.126-66.385a7.673 7.673 0 01-6.151-3.071c-1.722-2.293-5.793-3.912-9.775-3.912-.107 0-.214.001-.322.004-3.158.07-5.74 1.13-6.906 2.836a7.685 7.685 0 11-12.687-8.674c4.015-5.872 11.033-9.345 19.253-9.527 9.213-.191 17.921 3.645 22.727 10.046a7.684 7.684 0 01-6.139 12.298zm-95.541 138.01a7.685 7.685 0 01-6.344-12.013c4.186-6.142 10.791-9.762 18.124-9.932 7.676-.176 14.967 3.428 19.638 9.642a7.684 7.684 0 01-1.525 10.76 7.683 7.683 0 01-10.76-1.525c-1.7-2.262-4.332-3.584-6.996-3.512-1.661.039-4.012.629-5.778 3.222a7.683 7.683 0 01-6.359 3.358zM426.25 293.35a7.678 7.678 0 01-6.351-3.348c-1.768-2.586-4.131-3.173-5.803-3.21-2.686-.059-5.291 1.245-6.975 3.487a7.685 7.685 0 01-12.291-9.227c4.651-6.195 11.981-9.773 19.607-9.625 7.344.163 13.959 3.771 18.151 9.901a7.686 7.686 0 01-6.338 12.022zm-34.65-67.181a7.676 7.676 0 01-6.351-3.348c-1.766-2.583-4.12-3.171-5.784-3.21-2.665-.061-5.304 1.246-7.004 3.5a7.685 7.685 0 01-12.271-9.254c4.673-6.194 11.985-9.778 19.633-9.611 7.326.171 13.929 3.779 18.115 9.901a7.686 7.686 0 01-6.338 12.022zm65.041 138.806a7.679 7.679 0 01-6.358-3.358c-1.769-2.597-4.128-3.185-5.797-3.222-2.673-.053-5.283 1.249-6.967 3.499a7.685 7.685 0 01-12.305-9.207c4.651-6.215 11.964-9.842 19.613-9.656 7.349.163 13.967 3.783 18.159 9.932a7.686 7.686 0 01-6.345 12.012z" fill="#78c2a4"></path>
    <path d="M383.286 35.256H360.66a7.685 7.685 0 110-15.37h22.626a7.685 7.685 0 110 15.37zm98.78 106.043a7.685 7.685 0 01-7.685-7.685v-22.626a7.685 7.685 0 1115.37 0v22.626a7.685 7.685 0 01-7.685 7.685zM377.041 96.105a7.684 7.684 0 01-5.439-13.113l15.975-16.004a7.685 7.685 0 0110.878 10.857L382.48 93.849a7.658 7.658 0 01-5.439 2.256zm46.76 32.155a7.685 7.685 0 01-7.146-10.509l8.306-21.029a7.686 7.686 0 0114.295 5.646l-8.306 21.029a7.686 7.686 0 01-7.149 4.863z" fill="#ffd772"></path>
    <path clip-rule="evenodd" d="M319.244 87.694c0-10.979-6.012-17.863-14.435-21.116a27.478 27.478 0 004.211-14.668c0-15.249-12.344-27.593-27.563-27.593-2.963 0-5.78.465-8.452 1.336C249.682-4.67 203.967.79 185.93 32.333c-5.112 8.917-7.987 19.867-7.551 32.705-12.867 0-23.293 9.585-23.293 22.655 0 .813.029 1.597.116 2.382 1.191 11.386 10.833 20.273 22.538 20.273h118.849c12.489.001 22.655-11.53 22.655-22.654z" fill="#f9f6f6" fill-rule="evenodd"></path>
    <path clip-rule="evenodd" d="M178.379 65.039c-.436-12.838 2.44-23.788 7.551-32.705-.436.203-.842.407-1.249.639C177.565 11.915 161.678 1.517 145.21.152a45.816 45.816 0 00-7.464 0c-22.509 1.859-43.741 20.186-42.695 50.974-11.066 0-20.011 8.249-20.011 19.489 0 10.747 8.713 19.46 19.46 19.46h60.702a21.471 21.471 0 01-.116-2.382c0-13.069 10.427-22.654 23.293-22.654z" fill="#f9f6f6" fill-rule="evenodd"></path>
    <path clip-rule="evenodd" d="M178.379 65.039c-.436-12.838 2.44-23.788 7.551-32.705-.436.203-.842.407-1.249.639C177.565 11.915 161.678 1.517 145.21.152a45.816 45.816 0 00-7.464 0c-.668.058-1.336.116-2.004.203 3.921 10.95 6.128 23.265 6.128 36.248 0 20.419-5.431 39.095-14.406 53.472h27.737a21.471 21.471 0 01-.116-2.382c.001-13.069 10.428-22.654 23.294-22.654zm118.21 45.31c12.489 0 22.654-11.531 22.654-22.655 0-10.979-6.012-17.863-14.435-21.116a27.478 27.478 0 004.211-14.668c0-15.249-12.344-27.593-27.563-27.593-2.963 0-5.78.465-8.452 1.336-9.585-12.46-22.945-18.879-36.625-19.925 6.332 13.041 9.991 28.667 9.991 45.484 0 23.207-7 44.148-18.298 59.136h68.517z" fill="#ecdaec" fill-rule="evenodd"></path>
  </symbol>
  <symbol xmlns="http://www.w3.org/2000/svg" viewBox="0 0 512 512" id="destination">
    <path clip-rule="evenodd" d="M312.783 445.002c16.587-20.734-38.021-74.818 11.827-80.425C153.136 266.018 274.821 266.981 0 316.13v191.868a3.091 3.091 0 003.091 3.091h92.313c14.221-2.104 164.407-.001 217.379-66.087z" fill="#ce9874" fill-rule="evenodd"></path>
    <path clip-rule="evenodd" d="M350.074 364.577c-27.596 0-32.298 33.729-11.593 52.682 35.335 32.298 32.823 93.829-106.5 93.829h276.928a3.091 3.091 0 003.091-3.091v-143.42H350.074z" fill="#ce9874" fill-rule="evenodd"></path>
    <path clip-rule="evenodd" d="M252.569 511.088c139.352 0 141.834-61.53 106.529-93.829-20.733-18.953-16.003-52.682 11.593-52.682l-23.771-8.644-22.31 8.644c-49.848 5.607-26.165 59.691-42.752 80.425-52.943 66.086-213.438 63.983-227.659 66.086z" fill="#90d8f9" fill-rule="evenodd"></path>
    <path clip-rule="evenodd" d="M252.569 511.088c139.352 0 141.834-61.53 106.529-93.829-20.733-18.953-16.003-52.682 11.593-52.682H353.55c-27.596 0-38.868 40.3-18.134 59.253 35.305 32.298 12.09 71.372-118.911 87.258z" fill="#75cef8" fill-rule="evenodd"></path>
    <path d="M432.606 158.32a7.726 7.726 0 01-7.726-7.726v-17.726a7.726 7.726 0 1115.452 0v17.726a7.725 7.725 0 01-7.726 7.726zm-53.235-70.963h-17.755a7.726 7.726 0 110-15.452h17.755a7.726 7.726 0 110 15.452zm103.434 50.171a7.701 7.701 0 01-5.457-2.257l-12.557-12.528a7.727 7.727 0 0110.914-10.94l12.557 12.528a7.727 7.727 0 01-5.457 13.197zm-87.84-87.843a7.701 7.701 0 01-5.457-2.257L376.951 34.9a7.727 7.727 0 0110.914-10.94l12.557 12.528a7.727 7.727 0 01-5.457 13.197zm-12.557 87.843a7.726 7.726 0 01-5.457-13.196l12.557-12.528a7.726 7.726 0 1110.914 10.94l-12.557 12.528a7.703 7.703 0 01-5.457 2.256zm50.198-103.437a7.726 7.726 0 01-7.726-7.726V8.638a7.726 7.726 0 1115.452 0v17.726a7.725 7.725 0 01-7.726 7.727zm70.991 53.237h-17.755a7.726 7.726 0 110-15.452h17.755a7.726 7.726 0 110 15.452zm-33.349-37.643a7.726 7.726 0 01-5.457-13.196l12.557-12.528a7.726 7.726 0 1110.914 10.94l-12.557 12.528a7.703 7.703 0 01-5.457 2.256z" fill="#ffd772"></path>
    <path clip-rule="evenodd" d="M101.39 425.144c-.263-10.017 0-86.966-35.247-86.966-27.771 0-35.218 67.926-35.218 86.966 0 11.681 9.549 21.23 21.23 21.23H80.16c11.681.001 21.492-9.549 21.23-21.23z" fill="#ccf49e" fill-rule="evenodd"></path>
    <path clip-rule="evenodd" d="M458.742 78.463c0-13.287-10.776-24.092-24.092-24.092s-24.092 10.805-24.092 24.092c0 13.316 10.776 24.092 24.092 24.092 13.317 0 24.092-10.776 24.092-24.092z" fill="#ffd772" fill-rule="evenodd"></path>
    <path clip-rule="evenodd" d="M101.39 425.144c-.263-10.017 0-86.966-35.247-86.966-4.964 0-9.286 2.19-13.053 5.87 20.208 18.164 20.062 72.744 20.266 81.096.146 6.483-2.803 12.294-7.447 16.208-3.738 3.125-8.556 5.023-13.754 5.023H80.16c11.681 0 21.492-9.55 21.23-21.231z" fill="#b3e59e" fill-rule="evenodd"></path>
    <path clip-rule="evenodd" d="M228.872 308.42l37.276-101.772-78.612-94.5c-5.928-7.155-11.944-7.155-17.901 0L74.056 227.061 0 316.13h141.455z" fill="#95d6a4" fill-rule="evenodd"></path>
    <path clip-rule="evenodd" d="M266.148 206.648l-78.612-94.5c-5.928-7.155-11.944-7.155-17.901 0l-23.595 28.385c20.558 18.427 43.365 75.373 31.567 128.201 10.25 2.541 16.937 12.353 21.347 24.56z" fill="#78c2a4" fill-rule="evenodd"></path>
    <path clip-rule="evenodd" d="M207.481 355.057c-.146-6.22-.117-38.373-8.527-61.764-5.14-14.222-13.375-25.202-26.691-25.202-16.645 0-25.99 24.384-30.808 48.039-3.241 15.799-4.41 31.305-4.41 38.927 0 11.681 9.549 21.23 21.201 21.23h28.004c8.264 0 15.594-4.789 19.098-11.71a20.08 20.08 0 002.133-9.52z" fill="#ccf49e" fill-rule="evenodd"></path>
    <path clip-rule="evenodd" d="M207.481 355.057c-.146-6.22-.117-38.373-8.527-61.764-4.41-12.207-11.097-22.019-21.347-24.56a22.507 22.507 0 00-5.344-.642c-4.994 0-9.315 2.19-13.053 5.87 5.081 4.585 8.877 11.448 11.71 19.332 8.439 23.392 8.41 55.544 8.556 61.764a19.761 19.761 0 01-2.161 9.52 21.024 21.024 0 01-5.286 6.687c-3.738 3.125-8.585 5.023-13.783 5.023h28.004c8.264 0 15.594-4.789 19.098-11.71a20.08 20.08 0 002.133-9.52z" fill="#b3e59e" fill-rule="evenodd"></path>
    <path clip-rule="evenodd" d="M512 364.577L337.05 139.073c-6.132-7.914-12.323-7.914-18.485 0l-52.418 67.575-67.194 86.645c8.41 23.392 8.381 55.544 8.527 61.764a20.08 20.08 0 01-2.132 9.52h215.308c5.432-14.893 13.433-26.399 24.88-26.399 13.667 0 22.018 11.623 27.1 26.399z" fill="#95d6a4" fill-rule="evenodd"></path>
    <path clip-rule="evenodd" d="M512 364.577L337.05 139.073c-6.132-7.914-12.323-7.914-18.485 0l-40.299 51.952c54.695 52.069 78.729 103.203 22.018 173.553h120.371c5.432-14.893 13.433-26.399 24.88-26.399 13.667 0 22.018 11.623 27.1 26.399H512z" fill="#78c2a4" fill-rule="evenodd"></path>
    <path clip-rule="evenodd" d="M472.636 364.577c8.001 23.275 7.972 54.434 8.118 60.567-.146-6.133-.117-37.292-8.118-60.567zM512 507.998v-143.42h-39.364c8.001 23.275 7.972 54.434 8.118 60.567a20.08 20.08 0 01-2.132 9.52c-3.504 6.921-10.834 11.71-19.098 11.71H431.52c-.584 0-2.628 20.5-11.768 35.423-10.279 16.85-27.771 28.414-28.618 29.29h117.777a3.09 3.09 0 003.089-3.09z" fill="#c6875e" fill-rule="evenodd"></path>
    <path clip-rule="evenodd" d="M480.754 425.144c-.146-6.133-.117-37.292-8.118-60.567-5.081-14.777-13.433-26.399-27.1-26.399-11.447 0-19.449 11.506-24.88 26.399-7.768 21.26-10.367 49.382-10.367 60.567 0 11.681 9.549 21.23 21.23 21.23h28.004c11.682.001 21.523-9.549 21.231-21.23z" fill="#ccf49e" fill-rule="evenodd"></path>
    <path clip-rule="evenodd" d="M480.754 425.144c-.146-6.249-.117-38.373-8.556-61.764-4.38-12.207-11.097-22.019-21.318-24.56a22.691 22.691 0 00-5.344-.642c-4.994 0-9.315 2.19-13.053 5.87 5.081 4.585 8.877 11.448 11.71 19.332 8.439 23.392 8.41 55.515 8.556 61.764.058 3.417-.701 6.658-2.161 9.52-1.285 2.57-3.095 4.818-5.286 6.687-3.738 3.125-8.585 5.023-13.783 5.023h28.004c8.264 0 15.594-4.789 19.098-11.71a20.08 20.08 0 002.133-9.52z" fill="#b3e59e" fill-rule="evenodd"></path>
    <path d="M290.444 292.405h-5.227a7.726 7.726 0 110-15.452h5.227a7.726 7.726 0 110 15.452zm49.964-49.908h-5.227a7.726 7.726 0 110-15.452h5.227a7.726 7.726 0 110 15.452zm33.232 73.65h-5.198a7.726 7.726 0 110-15.452h5.198a7.726 7.726 0 110 15.452zM204.969 212.272h-5.227a7.726 7.726 0 110-15.452h5.227a7.726 7.726 0 110 15.452zm-72.45 30.225h-5.198a7.726 7.726 0 110-15.452h5.198a7.726 7.726 0 110 15.452zm8.644 193.06h-5.227a7.726 7.726 0 110-15.452h5.227a7.726 7.726 0 110 15.452zm99.228-23.304h-5.198a7.726 7.726 0 110-15.452h5.198a7.726 7.726 0 110 15.452zm-42.255 40.767h-5.227a7.726 7.726 0 110-15.452h5.227a7.726 7.726 0 110 15.452z" fill="#ccf49e"></path>
    <path clip-rule="evenodd" d="M458.742 78.463c0-13.287-10.776-24.092-24.092-24.092-3.446 0-6.716.73-9.666 2.015 7.534 4.088 12.674 12.061 12.674 21.201 0 9.871-5.957 18.369-14.455 22.077a24.038 24.038 0 0011.447 2.891c13.317 0 24.092-10.776 24.092-24.092z" fill="#fdb440" fill-rule="evenodd"></path>
    <path d="M172.03 410.793a7.726 7.726 0 01-7.726-7.726v-47.133a7.726 7.726 0 1115.452 0v47.133a7.726 7.726 0 01-7.726 7.726zm273.272 70.058a7.726 7.726 0 01-7.726-7.726v-47.133a7.726 7.726 0 1115.452 0v47.133a7.725 7.725 0 01-7.726 7.726zm-379.393 0a7.726 7.726 0 01-7.726-7.726v-47.133a7.726 7.726 0 1115.452 0v47.133a7.726 7.726 0 01-7.726 7.726z" fill="#fdb440"></path>
  </symbol>
  <symbol xmlns="http://www.w3.org/2000/svg" viewBox="0 0 512 512" id="guide">
    <path clip-rule="evenodd" d="M203.438 286.794l-65.703-25.172-48.737 25.172c-4.176 23.77-5.782 50.403-4.614 77.21 44.298-12.907 93.386-1.197 119.054-47.22l9.812-11.798zm167.06-21.347l-61.936 21.347-9.286 12.294 9.286 17.696c39.831 37.262 81.676 37.817 119.112 47.278 1.022-26.866-.584-53.469-4.672-77.269z" fill="#ccf49e" fill-rule="evenodd"></path>
    <path clip-rule="evenodd" d="M433.456 226.579H330.872a215.81 215.81 0 01-2.54 5.227c-8.264 16.266-23.536 33.115-40.385 45.906v9.082h145.51c9.636 0 17.521-7.885 17.521-17.521V244.1c-.001-9.637-7.885-17.521-17.522-17.521zm-199.123 50.227c-16.353-12.674-31.129-29.085-39.188-45a143.912 143.912 0 01-2.541-5.227H78.544c-9.666 0-17.55 7.885-17.55 17.521v25.172c0 9.637 7.884 17.521 17.55 17.521h155.789z" fill="#95d6a4" fill-rule="evenodd"></path>
    <path clip-rule="evenodd" d="M186.384 261.621H78.544c-9.666 0-17.55-7.885-17.55-17.521v25.172c0 9.637 7.884 17.521 17.55 17.521h124.894v-9.987c-5.987-4.613-11.739-9.753-17.054-15.185zm217.229 0h-76.858a163.632 163.632 0 01-18.192 16.09v9.082h124.894c9.636 0 17.521-7.885 17.521-17.521V244.1c0 9.637-7.884 17.521-17.521 17.521z" fill="#78c2a4" fill-rule="evenodd"></path>
    <path clip-rule="evenodd" d="M108.388 512V346.337c-40.035 23.508-60.155 59.631-60.155 98.586V512zm355.379-67.077c0-30.166-12.06-58.638-36.093-80.861-7.008-6.483-15.039-12.44-24.062-17.726-.117-.088-.234-.146-.35-.204V512h60.505z" fill="#ffd772" fill-rule="evenodd"></path>
    <path clip-rule="evenodd" d="M463.767 444.923c0-30.166-12.06-58.638-36.093-80.861-7.008-6.483-15.039-12.44-24.062-17.726l-.35-.204v30.224c25.61 15.769 35.976 45.964 35.976 73.881V512h24.529z" fill="#fdb440" fill-rule="evenodd"></path>
    <path clip-rule="evenodd" d="M355.722 512l29.737-77.485-29.737-107.452c-3.066-.818-6.249-1.548-9.461-2.219l-37.699-8.06c-11.33 23.128-93.824 23.128-105.125 0l-37.699 8.06c-3.358.701-6.629 1.46-9.812 2.307l-21.448 97.455L156.248 512H256z" fill="#ffd772" fill-rule="evenodd"></path>
    <path clip-rule="evenodd" d="M108.388 512h47.51V327.063c0-3.504-2.862-6.366-6.366-6.366h-34.779c-3.504 0-6.366 2.862-6.366 6.366V512zm247.334 0h47.54V327.063c0-3.504-2.862-6.366-6.366-6.366h-34.808c-3.504 0-6.366 2.862-6.366 6.366z" fill="#95d6a4" fill-rule="evenodd"></path>
    <path clip-rule="evenodd" d="M346.261 324.844l-37.699-8.06c-3.767 7.68-8.585 14.134-14.075 19.332 19.419 4.117 43.422 9.023 61.235 17.2v-26.253c-3.066-.817-6.249-1.547-9.461-2.219z" fill="#fdb440" fill-rule="evenodd"></path>
    <path clip-rule="evenodd" d="M149.532 320.697h-34.779c-3.504 0-6.366 2.862-6.366 6.366v28.092c0-3.504 2.862-6.366 6.366-6.366h34.779c3.504 0 6.366 2.862 6.366 6.366v-28.093c0-3.503-2.862-6.365-6.366-6.365zm247.364 0h-34.808c-3.504 0-6.366 2.862-6.366 6.366v28.093c0-3.504 2.862-6.366 6.366-6.366h34.808c3.504 0 6.366 2.862 6.366 6.366v-28.092c0-3.505-2.862-6.367-6.366-6.367z" fill="#78c2a4" fill-rule="evenodd"></path>
    <path clip-rule="evenodd" d="M203.438 276.806v39.978c11.301 23.128 32.063 34.984 52.562 35.627 20.47-.642 41.232-12.499 52.562-35.627v-39.073c-4.38 3.33-100.364 2.775-105.124-.905z" fill="#ffbc85" fill-rule="evenodd"></path>
    <path clip-rule="evenodd" d="M203.438 276.806v22.486a160.343 160.343 0 009.812 5.694c15.389 8.235 30.866 13.199 43.393 12.586 7.184.35 15.301-1.11 23.828-3.971 12.615-4.234 9.753-1.285 9.753 14.017v12.177c7.271-5.724 13.608-13.404 18.338-23.011v-39.073c-4.38 3.33-100.364 2.775-105.124-.905z" fill="#f5a96c" fill-rule="evenodd"></path>
    <path clip-rule="evenodd" d="M446.538 88.628l-85.005-16.704c-2.044 13.725-3.387 28.618 8.819 43.161h75.953c14.776 0 23.215-21.93.233-26.457z" fill="#f9f6f6" fill-rule="evenodd"></path>
    <path clip-rule="evenodd" d="M361.738 194.895c32.968 2.424 46.547-52.593 19.565-52.593h-17.521c-8.206 19.361-11.827 40.532-2.044 52.593zm-212.381-52.593h-17.521c-26.953 0-13.403 55.017 19.594 52.593 26.252-26.311 14.98-41.759-2.073-52.593z" fill="#f5a96c" fill-rule="evenodd"></path>
    <path clip-rule="evenodd" d="M363.636 176.03c1.226-19.186.146-41.292.146-60.945-62.462-28.238-151.905-28.092-214.425 0 .029 19.653-1.08 41.73.175 60.945 0 5.899.642 12.265 1.898 18.865 1.927 10.221 5.373 21.026 10.279 31.684.788 1.752 1.635 3.475 2.511 5.227 10.425 20.5 31.975 41.905 53.73 54.988 13.695 8.235 27.478 13.17 38.633 12.586 11.155.584 24.938-4.351 38.604-12.586 4.497-2.687 8.994-5.753 13.374-9.082 16.82-12.791 32.092-29.64 40.356-45.906a107.94 107.94 0 002.541-5.227c4.906-10.659 8.322-21.464 10.279-31.684 1.256-6.6 1.899-12.966 1.899-18.865z" fill="#fed1a3" fill-rule="evenodd"></path>
    <path clip-rule="evenodd" d="M361.533 71.925C342.903 28.443 297.787 0 254.394 0 197.86 0 138.406 48.563 138.406 115.085h231.945c.001-15.535-3.182-30.049-8.818-43.16z" fill="#95d6a4" fill-rule="evenodd"></path>
    <path clip-rule="evenodd" d="M284.179 89.709c0-13.959-11.418-25.377-25.376-25.377h-8.352c-13.958 0-25.376 11.418-25.376 25.377v25.377h59.103V89.709z" fill="#365e7d" fill-rule="evenodd"></path>
    <path clip-rule="evenodd" d="M351.459 226.579c4.906-10.659 8.322-21.464 10.279-31.684 1.256-6.6 1.898-12.966 1.898-18.865.701-10.659.672-22.194.496-33.728-.117-9.228-.35-18.485-.35-27.216H149.358c0 6.541-.117 13.345-.234 20.237H329.91c.204 12.44.292 24.968-.467 36.444 0 5.899-.613 12.265-1.898 18.865-8.235 43.277-48.328 94.644-94.904 103.667 8.585 3.563 16.791 5.461 23.945 5.081 11.155.584 24.938-4.351 38.604-12.586 4.497-2.687 8.994-5.753 13.374-9.082 16.82-12.791 32.092-29.64 40.356-45.906a107.892 107.892 0 002.539-5.227z" fill="#ffbc85" fill-rule="evenodd"></path>
    <path clip-rule="evenodd" d="M284.179 89.709c0-13.959-11.418-25.377-25.376-25.377h-8.352c-9.461 0-17.725 5.227-22.105 12.966a24.934 24.934 0 019.228-1.752h8.352c11.651 0 21.521 7.972 24.471 18.719.584 2.132.905 4.351.905 6.658v14.163h12.878V89.709z" fill="#2b4d66" fill-rule="evenodd"></path>
    <path clip-rule="evenodd" d="M431.441 101.098h-61.965c.584 4.556.876 9.228.876 13.988h75.953c14.776 0 23.215-21.931.234-26.457l-.672-.146c-.555 6.482-6.6 12.615-14.426 12.615z" fill="#ecdaec" fill-rule="evenodd"></path>
    <path clip-rule="evenodd" d="M361.533 71.925C342.903 28.443 297.787 0 254.394 0c-7.242 0-14.513.788-21.697 2.307 35.976 7.593 69.879 33.407 85.385 69.618a108.357 108.357 0 018.089 30.253c.496 4.234.759 8.527.759 12.907h43.422c0-15.535-3.183-30.049-8.819-43.16z" fill="#78c2a4" fill-rule="evenodd"></path>
    <path d="M208.051 179.902a7.726 7.726 0 01-7.726-7.726v-12.703a7.726 7.726 0 1115.452 0v12.703a7.725 7.725 0 01-7.726 7.726zm97.066-1.256a7.726 7.726 0 01-7.726-7.726v-12.732a7.726 7.726 0 1115.452 0v12.732a7.726 7.726 0 01-7.726 7.726z" fill="#365e7d"></path>
    <path d="M255.979 257.875c-10.169 0-20.13-3.725-29.606-11.177a7.727 7.727 0 019.553-12.147c13.444 10.573 26.659 10.507 41.588-.204a7.726 7.726 0 0110.782 1.774 7.726 7.726 0 01-1.774 10.782c-10.195 7.314-20.471 10.972-30.543 10.972z" fill="#f5a96c"></path>
  </symbol>
</svg>