<?xml version="1.0" encoding="UTF-8"?>
<svg xmlns="http://www.w3.org/2000/svg" id="Icons" viewBox="0 0 74 74" width="512" height="512"><path d="M71,39.53a1,1,0,0,1-1-1V35.56a1,1,0,0,1,2,0v2.97A1,1,0,0,1,71,39.53Z"/><path d="M69,72H5a3,3,0,0,1-3-3V5A3,3,0,0,1,5,2H69a3,3,0,0,1,3,3V28.56a1,1,0,1,1-2,0V5a1,1,0,0,0-1-1H5A1,1,0,0,0,4,5V69a1,1,0,0,0,1,1H69a1,1,0,0,0,1-1V55.44a1,1,0,0,1,2,0V69A3,3,0,0,1,69,72Z"/><path d="M71,49.44a1,1,0,0,1-1-1V45.53a1,1,0,0,1,2,0v2.91A1,1,0,0,1,71,49.44Z"/><path d="M71,19H3a1,1,0,0,1,0-2H71a1,1,0,0,1,0,2Z"/><path d="M11.505,13.817A3.317,3.317,0,1,1,14.822,10.5,3.321,3.321,0,0,1,11.505,13.817Zm0-4.634A1.317,1.317,0,1,0,12.822,10.5,1.317,1.317,0,0,0,11.505,9.183Z"/><path d="M21.167,13.817A3.317,3.317,0,1,1,24.484,10.5,3.321,3.321,0,0,1,21.167,13.817Zm0-4.634A1.317,1.317,0,1,0,22.484,10.5,1.317,1.317,0,0,0,21.167,9.183Z"/><path d="M30.828,13.817A3.317,3.317,0,1,1,34.146,10.5,3.321,3.321,0,0,1,30.828,13.817Zm0-4.634A1.317,1.317,0,1,0,32.146,10.5,1.318,1.318,0,0,0,30.828,9.183Z"/><path d="M64.812,11.5H40.479a1,1,0,0,1,0-2H64.812a1,1,0,0,1,0,2Z"/><path d="M43.211,51.934a1,1,0,0,1-.466-.115L37,48.8l-5.746,3.021A1,1,0,0,1,29.8,50.765l1.1-6.4-4.649-4.531a1,1,0,0,1,.555-1.706l6.423-.934L36.1,31.374a1,1,0,0,1,.9-.558h0a1,1,0,0,1,.9.558L40.77,37.2l6.424.934a1,1,0,0,1,.555,1.706L43.1,44.366l1.1,6.4a1,1,0,0,1-.985,1.169ZM37,46.668a1,1,0,0,1,.466.115l4.417,2.323-.843-4.92a1,1,0,0,1,.287-.885L44.9,39.817,39.962,39.1a1,1,0,0,1-.753-.547L37,34.076l-2.21,4.476a1,1,0,0,1-.753.547l-4.938.718L32.673,43.3a1,1,0,0,1,.287.885l-.844,4.92,4.418-2.323A1,1,0,0,1,37,46.668Z"/><path d="M59.4,55.934a1,1,0,0,1-.465-.115L55,53.749l-3.937,2.07a1,1,0,0,1-1.451-1.054l.752-4.384-3.185-3.1a1,1,0,0,1,.554-1.706l4.4-.639L54.1,40.942a1.041,1.041,0,0,1,1.792,0l1.969,3.989,4.4.639a1,1,0,0,1,.554,1.706l-3.185,3.1.752,4.384a1,1,0,0,1-.986,1.169ZM55,51.619a1,1,0,0,1,.466.115l2.608,1.372-.5-2.905a1,1,0,0,1,.287-.886l2.112-2.057-2.917-.424a.994.994,0,0,1-.753-.547L55,43.644l-1.3,2.643a.994.994,0,0,1-.753.547l-2.917.424,2.112,2.057a1,1,0,0,1,.287.886l-.5,2.905,2.608-1.372A1,1,0,0,1,55,51.619Z"/><path d="M23.4,55.934a1,1,0,0,1-.465-.115L19,53.749l-3.937,2.07a1,1,0,0,1-1.451-1.054l.752-4.384-3.185-3.1a1,1,0,0,1,.554-1.706l4.4-.639L18.1,40.942a1.041,1.041,0,0,1,1.793,0l1.968,3.989,4.4.639a1,1,0,0,1,.554,1.706l-3.186,3.1.752,4.384a1,1,0,0,1-.986,1.169ZM19,51.619a1,1,0,0,1,.466.115l2.608,1.372-.5-2.905a1,1,0,0,1,.287-.886l2.112-2.057-2.917-.424a.994.994,0,0,1-.753-.547L19,43.644l-1.3,2.643a.994.994,0,0,1-.753.547l-2.917.424,2.112,2.057a1,1,0,0,1,.287.886l-.5,2.905,2.608-1.372A1,1,0,0,1,19,51.619Z"/></svg>
