<svg width="0" height="0" class="hidden">
  <symbol xmlns="http://www.w3.org/2000/svg" viewBox="0 0 480 480" id="user">
    <path d="M240 0C107.664 0 0 107.664 0 240c0 57.96 20.656 111.184 54.992 152.704.088.12.096.272.192.384 24.792 29.896 55.928 52.816 90.624 67.624.4.168.792.352 1.192.52 2.808 1.184 5.648 2.28 8.496 3.352 1.12.424 2.24.856 3.376 1.264 2.456.88 4.928 1.712 7.416 2.512 1.592.512 3.184 1.016 4.792 1.496 2.2.656 4.408 1.288 6.632 1.888 1.952.528 3.92 1.016 5.888 1.488 1.992.48 3.992.96 6 1.384 2.24.48 4.504.904 6.776 1.32 1.824.336 3.64.688 5.48.984 2.52.408 5.056.728 7.6 1.056 1.64.208 3.272.448 4.92.624 2.88.304 5.784.52 8.696.72 1.352.096 2.696.24 4.056.312 4.248.24 8.544.368 12.872.368s8.624-.128 12.888-.352c1.36-.072 2.704-.216 4.056-.312 2.912-.208 5.816-.416 8.696-.72 1.648-.176 3.28-.416 4.92-.624 2.544-.328 5.08-.648 7.6-1.056 1.832-.296 3.656-.648 5.48-.984 2.264-.416 4.528-.84 6.776-1.32 2.008-.432 4-.904 6-1.384 1.968-.48 3.936-.968 5.888-1.488a232.661 232.661 0 0011.424-3.384c2.488-.8 4.96-1.632 7.416-2.512 1.128-.408 2.248-.84 3.376-1.264a243.168 243.168 0 008.496-3.352c.4-.168.792-.352 1.192-.52a239.997 239.997 0 0090.624-67.624c.096-.112.104-.272.192-.384C459.344 351.184 480 297.96 480 240 480 107.664 372.336 0 240 0zm97.256 441.76c-.12.056-.232.12-.352.176-2.856 1.376-5.76 2.672-8.688 3.936-.664.28-1.32.568-1.984.848a217.023 217.023 0 01-7.76 3.064 159.85 159.85 0 01-3.272 1.192 230.572 230.572 0 01-6.976 2.368c-1.456.464-2.92.904-4.384 1.336a202.08 202.08 0 01-6.28 1.784c-1.776.472-3.568.904-5.36 1.328-1.88.448-3.752.904-5.648 1.304-2.072.44-4.16.816-6.24 1.192-1.688.312-3.368.64-5.072.912-2.344.368-4.712.664-7.072.96-1.496.192-2.984.416-4.496.576-2.696.288-5.416.472-8.128.664-1.208.08-2.408.216-3.632.28-3.96.208-7.928.32-11.912.32s-7.952-.112-11.904-.32c-1.216-.064-2.416-.192-3.632-.28-2.72-.184-5.432-.376-8.128-.664-1.512-.16-3-.384-4.496-.576-2.36-.296-4.728-.592-7.072-.96-1.704-.272-3.384-.6-5.072-.912-2.088-.376-4.176-.76-6.24-1.192-1.896-.4-3.776-.856-5.648-1.304-1.792-.432-3.584-.856-5.36-1.328-2.104-.56-4.2-1.168-6.28-1.784a212.543 212.543 0 01-4.384-1.336 223.256 223.256 0 01-6.976-2.368 217.023 217.023 0 01-11.032-4.256c-.664-.272-1.312-.56-1.976-.84a223.812 223.812 0 01-8.696-3.936 7.216 7.216 0 01-.352-.176c-27.912-13.504-52.568-32.672-72.576-55.952 15.464-56.944 59.24-102.848 115.56-121.112 1.112.68 2.272 1.288 3.416 1.928.672.376 1.336.776 2.016 1.136a99.592 99.592 0 007.272 3.512c1.896.832 3.856 1.536 5.808 2.256.384.136.768.288 1.152.424 10.848 3.84 22.456 6.04 34.6 6.04s23.752-2.2 34.592-6.04c.384-.136.768-.288 1.152-.424 1.952-.72 3.912-1.424 5.808-2.256a99.592 99.592 0 007.272-3.512c.68-.368 1.344-.76 2.016-1.136 1.144-.64 2.312-1.248 3.432-1.936 56.32 18.272 100.088 64.176 115.56 121.112-20.008 23.272-44.664 42.44-72.576 55.952zM152 176c0-48.52 39.48-88 88-88s88 39.48 88 88c0 30.864-16.008 58.024-40.128 73.736a84.742 84.742 0 01-9.8 5.48c-.4.192-.792.392-1.192.576-23.168 10.536-50.592 10.536-73.76 0-.4-.184-.8-.384-1.192-.576a84.083 84.083 0 01-9.8-5.48C168.008 234.024 152 206.864 152 176zm269.832 194.584c-18.136-53.552-59.512-96.832-112.376-117.392C330.6 234.144 344 206.64 344 176c0-57.344-46.656-104-104-104s-104 46.656-104 104c0 30.64 13.4 58.144 34.552 77.192-52.864 20.568-94.24 63.84-112.376 117.392C31.672 333.792 16 288.704 16 240 16 116.488 116.488 16 240 16s224 100.488 224 224c0 48.704-15.672 93.792-42.168 130.584z"></path>
  </symbol>
  <symbol xmlns="http://www.w3.org/2000/svg" viewBox="0 0 512 512" id="heart">
    <path d="M378.667 21.333c-56.792 0-103.698 52.75-122.667 77.646-18.969-24.896-65.875-77.646-122.667-77.646C59.813 21.333 0 88.927 0 172c0 45.323 17.99 87.562 49.479 116.469a10.54 10.54 0 001.677 2.177l197.313 196.906c2.083 2.073 4.802 3.115 7.531 3.115s5.458-1.042 7.542-3.125L467.417 283.74l2.104-2.042c1.667-1.573 3.313-3.167 5.156-5.208a10.372 10.372 0 001.896-2.542C499.438 245.948 512 209.833 512 172c0-83.073-59.812-150.667-133.333-150.667zm80.156 240.615a9.929 9.929 0 00-.802 1.083c-1 1.146-2.094 2.156-3.177 3.188L255.99 464.927 68.667 277.979a10.706 10.706 0 00-2.479-3.177C37.677 249.906 21.333 212.437 21.333 172c0-71.313 50.24-129.333 112-129.333 61.063 0 113.177 79.646 113.698 80.448 3.938 6.083 14 6.083 17.938 0 .521-.802 52.635-80.448 113.698-80.448 61.76 0 112 58.021 112 129.333 0 33.604-11.313 65.552-31.844 89.948z"></path>
  </symbol>
  <symbol xmlns="http://www.w3.org/2000/svg" viewBox="0 0 64 64" id="calendar">
    <path d="M56 40.105V12c0-2.757-2.243-5-5-5h-2V5c0-1.654-1.346-3-3-3s-3 1.346-3 3v2h-5V5c0-1.654-1.346-3-3-3s-3 1.346-3 3v2h-6V5c0-1.654-1.346-3-3-3s-3 1.346-3 3v2h-5V5c0-1.654-1.346-3-3-3S9 3.346 9 5v2H7c-2.757 0-5 2.243-5 5v40c0 2.757 2.243 5 5 5h33.623c2.08 3.58 5.947 6 10.377 6 6.617 0 12-5.383 12-12 0-4.831-2.876-8.994-7-10.895zM45 5a1 1 0 012 0v6a1 1 0 01-2 0zM34 5a1 1 0 012 0v6a1 1 0 01-2 0zM22 5a1 1 0 012 0v6a1 1 0 01-2 0zM11 5a1 1 0 012 0v6a1 1 0 01-2 0zM7 9h2v2c0 1.654 1.346 3 3 3s3-1.346 3-3V9h5v2c0 1.654 1.346 3 3 3s3-1.346 3-3V9h6v2c0 1.654 1.346 3 3 3s3-1.346 3-3V9h5v2c0 1.654 1.346 3 3 3s3-1.346 3-3V9h2c1.654 0 3 1.346 3 3v5H4v-5c0-1.654 1.346-3 3-3zm0 46c-1.654 0-3-1.346-3-3V19h50v20.395A11.943 11.943 0 0051 39c-.683 0-1.348.07-2 .18V34a1 1 0 00-1-1h-6a1 1 0 00-1 1v6a1 1 0 001 1h2.38C41.143 43.151 39 46.828 39 51c0 1.404.255 2.747.7 4zm40-16h-4v-4h4zm4 22c-5.514 0-10-4.486-10-10s4.486-10 10-10 10 4.486 10 10-4.486 10-10 10z"></path>
    <path d="M52 49.277V43h-2v6.277c-.595.347-1 .985-1 1.723 0 .101.015.198.03.296l-3.655 2.923 1.25 1.562 3.652-2.921c.225.088.467.14.723.14a2 2 0 002-2c0-.738-.405-1.376-1-1.723zM15 22H9a1 1 0 00-1 1v6a1 1 0 001 1h6a1 1 0 001-1v-6a1 1 0 00-1-1zm-1 6h-4v-4h4zm12-6h-6a1 1 0 00-1 1v6a1 1 0 001 1h6a1 1 0 001-1v-6a1 1 0 00-1-1zm-1 6h-4v-4h4zm12-6h-6a1 1 0 00-1 1v6a1 1 0 001 1h6a1 1 0 001-1v-6a1 1 0 00-1-1zm-1 6h-4v-4h4zm6 2h6a1 1 0 001-1v-6a1 1 0 00-1-1h-6a1 1 0 00-1 1v6a1 1 0 001 1zm1-6h4v4h-4zm-28 9H9a1 1 0 00-1 1v6a1 1 0 001 1h6a1 1 0 001-1v-6a1 1 0 00-1-1zm-1 6h-4v-4h4zm12-6h-6a1 1 0 00-1 1v6a1 1 0 001 1h6a1 1 0 001-1v-6a1 1 0 00-1-1zm-1 6h-4v-4h4zm12-6h-6a1 1 0 00-1 1v6a1 1 0 001 1h6a1 1 0 001-1v-6a1 1 0 00-1-1zm-1 6h-4v-4h4zm-21 5H9a1 1 0 00-1 1v6a1 1 0 001 1h6a1 1 0 001-1v-6a1 1 0 00-1-1zm-1 6h-4v-4h4zm12-6h-6a1 1 0 00-1 1v6a1 1 0 001 1h6a1 1 0 001-1v-6a1 1 0 00-1-1zm-1 6h-4v-4h4zm12-6h-6a1 1 0 00-1 1v6a1 1 0 001 1h6a1 1 0 001-1v-6a1 1 0 00-1-1zm-1 6h-4v-4h4z"></path>
  </symbol>
  <symbol xmlns="http://www.w3.org/2000/svg" viewBox="0 0 74 74" id="rating">
    <path d="M71 39.53a1 1 0 01-1-1v-2.97a1 1 0 012 0v2.97a1 1 0 01-1 1z"></path>
    <path d="M69 72H5a3 3 0 01-3-3V5a3 3 0 013-3h64a3 3 0 013 3v23.56a1 1 0 11-2 0V5a1 1 0 00-1-1H5a1 1 0 00-1 1v64a1 1 0 001 1h64a1 1 0 001-1V55.44a1 1 0 012 0V69a3 3 0 01-3 3z"></path>
    <path d="M71 49.44a1 1 0 01-1-1v-2.91a1 1 0 012 0v2.91a1 1 0 01-1 1zM71 19H3a1 1 0 010-2h68a1 1 0 010 2zm-59.495-5.183a3.317 3.317 0 113.317-3.317 3.321 3.321 0 01-3.317 3.317zm0-4.634a1.317 1.317 0 101.317 1.317 1.317 1.317 0 00-1.317-1.317zm9.662 4.634a3.317 3.317 0 113.317-3.317 3.321 3.321 0 01-3.317 3.317zm0-4.634a1.317 1.317 0 101.317 1.317 1.317 1.317 0 00-1.317-1.317zm9.661 4.634a3.317 3.317 0 113.318-3.317 3.321 3.321 0 01-3.318 3.317zm0-4.634a1.317 1.317 0 101.318 1.317 1.318 1.318 0 00-1.318-1.317zM64.812 11.5H40.479a1 1 0 010-2h24.333a1 1 0 010 2zM43.211 51.934a1 1 0 01-.466-.115L37 48.8l-5.746 3.021a1 1 0 01-1.454-1.056l1.1-6.4-4.649-4.531a1 1 0 01.555-1.706l6.423-.934 2.871-5.82a1 1 0 01.9-.558 1 1 0 01.9.558l2.87 5.826 6.424.934a1 1 0 01.555 1.706L43.1 44.366l1.1 6.4a1 1 0 01-.985 1.169zM37 46.668a1 1 0 01.466.115l4.417 2.323-.843-4.92a1 1 0 01.287-.885l3.573-3.484-4.938-.717a1 1 0 01-.753-.547L37 34.076l-2.21 4.476a1 1 0 01-.753.547l-4.938.718 3.574 3.483a1 1 0 01.287.885l-.844 4.92 4.418-2.323a1 1 0 01.466-.114zm22.4 9.266a1 1 0 01-.465-.115L55 53.749l-3.937 2.07a1 1 0 01-1.451-1.054l.752-4.384-3.185-3.1a1 1 0 01.554-1.706l4.4-.639 1.967-3.994a1.041 1.041 0 011.792 0l1.969 3.989 4.4.639a1 1 0 01.554 1.706l-3.185 3.1.752 4.384a1 1 0 01-.986 1.169zM55 51.619a1 1 0 01.466.115l2.608 1.372-.5-2.905a1 1 0 01.287-.886l2.112-2.057-2.917-.424a.994.994 0 01-.753-.547L55 43.644l-1.3 2.643a.994.994 0 01-.753.547l-2.917.424 2.112 2.057a1 1 0 01.287.886l-.5 2.905 2.608-1.372a1 1 0 01.463-.115zm-31.6 4.315a1 1 0 01-.465-.115L19 53.749l-3.937 2.07a1 1 0 01-1.451-1.054l.752-4.384-3.185-3.1a1 1 0 01.554-1.706l4.4-.639 1.967-3.994a1.041 1.041 0 011.793 0l1.968 3.989 4.4.639a1 1 0 01.554 1.706l-3.186 3.1.752 4.384a1 1 0 01-.986 1.169zM19 51.619a1 1 0 01.466.115l2.608 1.372-.5-2.905a1 1 0 01.287-.886l2.112-2.057-2.917-.424a.994.994 0 01-.753-.547L19 43.644l-1.3 2.643a.994.994 0 01-.753.547l-2.917.424 2.112 2.057a1 1 0 01.287.886l-.5 2.905 2.608-1.372a1 1 0 01.463-.115z"></path>
  </symbol>
</svg>