<svg id="Capa_1" enable-background="new 0 0 512 512" height="512" viewBox="0 0 512 512" width="512" xmlns="http://www.w3.org/2000/svg"><g><path d="m256 0c-140.959 0-256 115.05-256 256 0 141.579 115.559 256 256 256 141.217 0 256-115.33 256-256 0-68.113-26.702-132.327-75.188-180.812-48.485-48.486-112.699-75.188-180.812-75.188zm0 482c-91.268 0-170.068-54.385-205.71-132.447l76.102-81.947 29.001 29.001c5.857 5.858 15.355 5.858 21.213 0l34.394-34.394 34.394 34.393c5.857 5.858 15.355 5.858 21.213 0l34.393-34.393 34.394 34.393c5.857 5.858 15.355 5.859 21.213 0l29.287-29.287 76.101 81.625c-35.51 78.39-114.488 133.056-205.995 133.056zm-109.179-236.392 109.2-117.588 109.402 117.344-19.423 19.423-34.394-34.393c-5.857-5.858-15.355-5.858-21.213 0l-34.393 34.393-34.394-34.393c-5.857-5.858-15.355-5.858-21.213 0l-34.393 34.393zm326.718 71.725-206.568-221.562c-2.837-3.043-6.81-4.771-10.971-4.771-.005 0-.01 0-.015 0-4.166.004-8.142 1.74-10.977 4.792l-206.36 222.21c-5.63-19.709-8.648-40.509-8.648-62.002 0-124.617 101.383-226 226-226s226 101.383 226 226c0 21.25-2.953 41.821-8.461 61.333z"/></g></svg>