<svg width="0" height="0" class="hidden">
  <symbol xmlns="http://www.w3.org/2000/svg" viewBox="0 0 512 512" id="logo-mountain">
    <path d="M256 0C115.041 0 0 115.05 0 256c0 141.579 115.559 256 256 256 141.217 0 256-115.33 256-256 0-68.113-26.702-132.327-75.188-180.812C388.327 26.702 324.113 0 256 0zm0 482c-91.268 0-170.068-54.385-205.71-132.447l76.102-81.947 29.001 29.001c5.857 5.858 15.355 5.858 21.213 0L211 262.213l34.394 34.393c5.857 5.858 15.355 5.858 21.213 0L301 262.213l34.394 34.393c5.857 5.858 15.355 5.859 21.213 0l29.287-29.287 76.101 81.625C426.485 427.334 347.507 482 256 482zM146.821 245.608l109.2-117.588 109.402 117.344L346 264.787l-34.394-34.393c-5.857-5.858-15.355-5.858-21.213 0L256 264.787l-34.394-34.393c-5.857-5.858-15.355-5.858-21.213 0L166 264.787zm326.718 71.725L266.971 95.771A14.998 14.998 0 00256 91h-.015a15.001 15.001 0 00-10.977 4.792l-206.36 222.21C33.018 298.293 30 277.493 30 256 30 131.383 131.383 30 256 30s226 101.383 226 226c0 21.25-2.953 41.821-8.461 61.333z"></path>
  </symbol>
</svg>